<svg width="20" height="20" viewBox="0 0 20 20" fill="none" xmlns="http://www.w3.org/2000/svg">
<path d="M12.9971 18.5172C12.9971 18.5172 12.9971 18.5279 12.9971 18.5172C12.9971 18.5279 13.0078 18.5386 13.0185 18.5386L12.9971 18.5172Z" fill="#675ED5"/>
<path d="M13.0938 18.7422C13.1039 18.7422 13.1039 18.7422 13.0938 18.7422C13.1039 18.7523 13.1039 18.7523 13.1039 18.7523L13.0938 18.7422Z" fill="#675ED5"/>
<path d="M20 3.36288C20 1.28518 18.7024 0 16.622 0C12.2145 0 7.80697 0 3.38874 0C1.30831 0 0.0107239 1.28518 0 3.35217C0 6.24383 0 9.13548 0 12.0271C0 14.137 1.28686 15.4221 3.39946 15.4221C5.19035 15.4221 6.97051 15.4329 8.76139 15.4114C9.05094 15.4114 9.15818 15.4757 9.14745 15.7863C9.12601 16.5038 9.12601 17.2107 9.14745 17.9282C9.15818 18.2067 9.07239 18.3031 8.78284 18.2924C8.40751 18.271 8.03217 18.271 7.65684 18.2924C7.13137 18.3245 6.80965 18.7208 6.86327 19.2348C6.91689 19.7061 7.27078 19.9952 7.86059 19.9952C9.22252 20.0059 10.5737 19.9952 11.9357 19.9952C12.9115 19.9952 13.1796 19.6954 13.0938 18.7422C13.008 18.6994 12.9223 18.6458 12.9866 18.528C12.4826 18.2174 11.9249 18.271 11.378 18.3031C10.9812 18.3245 10.8097 18.2388 10.8418 17.789C10.8847 17.1678 10.874 16.536 10.8418 15.9148C10.8204 15.5292 10.9169 15.4114 11.3244 15.4114C13.0938 15.4436 14.8633 15.4221 16.6327 15.4221C18.681 15.4221 19.9893 14.1263 19.9893 12.0914C20 9.18903 20 6.27596 20 3.36288ZM14.4343 12.1556H5.57641C4.92225 12.1556 4.39678 11.6309 4.39678 10.9776C4.39678 10.3243 4.92225 9.79949 5.57641 9.79949H14.4343C15.0885 9.79949 15.6139 10.3243 15.6139 10.9776C15.6032 11.6309 15.0777 12.1556 14.4343 12.1556Z" fill="#675ED5"/>
</svg>
