<svg width="21" height="20" viewBox="0 0 21 20" fill="none" xmlns="http://www.w3.org/2000/svg">
<path d="M2.54692 16.4663C2.06255 16.318 1.64848 16.5755 1.30473 17.0125C1.16411 17.1842 0.992233 17.3246 0.835983 17.4807C0.710983 17.6134 0.585983 17.7616 0.367233 17.6914C0.156296 17.6212 0.132858 17.4261 0.0937959 17.2544C-0.328079 15.4752 0.726608 13.6415 2.47661 13.1108C3.00786 12.947 3.54692 12.8845 4.0938 13.0094C4.32817 13.064 4.50005 13.0094 4.67973 12.8299C7.39848 10.0987 10.125 7.38316 12.8516 4.6676C13.0157 4.50373 13.0625 4.34766 13.0313 4.12136C12.6719 1.58527 14.7188 -0.388978 17.211 0.079223C17.4141 0.11824 17.6407 0.133846 17.7188 0.375751C17.7891 0.609851 17.6016 0.726901 17.4688 0.867362C17.4454 0.898575 17.4141 0.921985 17.3829 0.953199C16.4141 1.92081 16.4219 1.92081 16.4766 3.2786C16.4844 3.45808 16.5235 3.54391 16.7188 3.5127C16.7422 3.5049 16.7735 3.5049 16.7969 3.5127C17.75 3.67657 18.5157 3.39565 19.0782 2.5841C19.1172 2.52948 19.1641 2.49046 19.211 2.44364C19.5313 2.14711 19.7579 2.20954 19.8829 2.63092C20.3125 4.16038 19.5547 5.87712 18.1172 6.61844C17.4141 6.97739 16.6719 7.11785 15.8907 6.96178C15.6641 6.91496 15.5079 6.96959 15.3438 7.14126C12.625 9.86463 9.89848 12.588 7.17192 15.3036C6.99223 15.483 6.95317 15.6469 6.98442 15.8888C7.36723 18.3781 5.22661 20.4148 2.7813 19.8919C2.5938 19.8529 2.37505 19.8451 2.29692 19.6188C2.2188 19.3847 2.39848 19.2677 2.5313 19.1272C2.55473 19.096 2.58598 19.0648 2.61723 19.0492C3.42973 18.5107 3.67192 17.746 3.54692 16.8096C3.51567 16.5521 3.48442 16.4351 3.20317 16.4741C3.00786 16.4819 2.82036 16.4663 2.54692 16.4663Z" fill="#675ED5"/>
<path d="M19.9995 17.1374C19.937 18.2766 19.3902 19.1974 18.2652 19.7047C17.1636 20.2041 16.062 20.0792 15.1714 19.2521C13.6714 17.8475 12.2339 16.3726 10.773 14.929C10.7339 14.89 10.7027 14.851 10.6714 14.812C10.1636 14.1565 10.1636 14.1409 10.7495 13.5556C11.773 12.5334 12.7964 11.5189 13.812 10.4889C13.9917 10.3094 14.1324 10.286 14.3433 10.4109C14.5855 10.5591 14.8277 10.7152 15.0308 10.9181C16.3902 12.2603 17.7495 13.6024 19.1089 14.9524C19.6949 15.5299 19.9839 16.2322 19.9995 17.1374ZM13.5933 14.1175C13.5855 14.3984 13.7027 14.5466 13.8433 14.6871C14.7495 15.5767 15.6558 16.4741 16.562 17.3637C16.8902 17.6836 17.2261 17.6992 17.4839 17.4261C17.7339 17.1608 17.7027 16.8486 17.3902 16.5365C16.8589 16.0059 16.3199 15.4752 15.7808 14.9524C15.3824 14.5622 14.9839 14.1721 14.5855 13.7819C14.398 13.6024 14.1714 13.5634 13.937 13.6649C13.7261 13.7585 13.6089 13.9458 13.5933 14.1175Z" fill="#675ED5"/>
<path d="M0 1.63941C0.0078125 1.40531 0.0859375 1.26485 0.210938 1.14C0.523438 0.827865 0.835938 0.51573 1.14844 0.203596C1.39844 -0.0383081 1.67188 -0.0617181 1.96094 0.117759C3.09375 0.820061 4.23438 1.52236 5.36719 2.23247C5.70313 2.44316 5.71094 2.61483 5.42969 2.91916C5.02344 3.35615 5.02344 3.35615 5.44531 3.77753C6.46875 4.79977 7.47656 5.82201 8.51563 6.82864C8.73438 7.03934 8.71094 7.14858 8.50781 7.33586C8.09375 7.71823 7.70313 8.10839 7.32031 8.52197C7.14844 8.70925 7.05469 8.70925 6.86719 8.52197C5.80469 7.44511 4.71875 6.38385 3.65625 5.29919C3.42969 5.06509 3.27344 4.98705 3.0625 5.29138C3.01563 5.36161 2.9375 5.42404 2.86719 5.48647C2.64844 5.68936 2.4375 5.67375 2.28125 5.42404C1.53906 4.24573 0.8125 3.06743 0.0859375 1.88132C0.03125 1.79548 0.015625 1.69404 0 1.63941Z" fill="#675ED5"/>
</svg>
