<svg width="27" height="24" viewBox="0 0 27 24" fill="none" xmlns="http://www.w3.org/2000/svg">
<g clip-path="url(#clip0_828_1195)">
<path d="M13.4543 23.993C10.0258 23.993 6.59016 23.993 3.16159 23.993C1.65105 23.993 0.484778 23.1429 0.112412 21.7869C0.0351288 21.5059 0 21.2178 0 20.9227C0 14.9719 0 9.0281 0 3.07728C0 1.29274 1.30679 0.00702576 3.12646 0.00702576C6.56206 0 9.99063 0 13.4192 0C16.8829 0 20.3536 0 23.8173 0C25.4824 0 26.6838 0.997658 26.9438 2.58548C26.9789 2.78923 26.9789 3.00703 26.9789 3.2178C26.9789 9.07026 26.9789 14.9227 26.9789 20.7822C26.9789 22.7424 25.7143 24 23.7471 24C20.3185 24 16.8829 23.993 13.4543 23.993ZM13.4824 1.51054C10.0398 1.51054 6.59719 1.51054 3.15457 1.51054C2.10773 1.51054 1.49649 2.11475 1.49649 3.16159C1.49649 9.04215 1.49649 14.9157 1.49649 20.7963C1.49649 21.8852 2.09368 22.4824 3.1897 22.4824C10.0468 22.4824 16.911 22.4824 23.7681 22.4824C24.8852 22.4824 25.4824 21.8923 25.4824 20.7822C25.4824 16.4824 25.4754 12.1897 25.4895 7.88993C25.4895 7.56674 25.4052 7.48946 25.089 7.48946C20.1007 7.50351 15.1124 7.49649 10.1241 7.49649C8.28337 7.49649 6.44965 7.49649 4.6089 7.49649C4.22951 7.49649 3.94145 7.37002 3.79391 7.01171C3.58314 6.4918 3.96253 6 4.58782 6C6.06323 5.99297 7.53864 6 9.01405 6C14.3888 6 19.7635 6 25.1382 6.00703C25.4052 6.00703 25.5035 5.95082 25.4895 5.66276C25.4684 4.8548 25.4824 4.04684 25.4824 3.23888C25.4824 2.09368 24.8993 1.50351 23.7681 1.50351C20.3396 1.51054 16.911 1.51054 13.4824 1.51054Z" fill="white"/>
<path d="M14.9719 14.9859C14.9719 16.1592 14.9649 17.3255 14.9719 18.4988C14.9789 19.1803 14.7119 19.7073 14.1147 20.0375C13.5176 20.3607 12.9274 20.3185 12.3583 19.9391C11.4028 19.3068 10.3911 18.7728 9.47774 18.0703C9.37236 17.9859 9.25995 18 9.14753 18C8.48009 18 7.81264 18.007 7.14519 18C5.92974 17.9859 5.24121 17.2904 5.24121 16.0679C5.24121 15.3443 5.24121 14.6136 5.24121 13.8899C5.24824 12.7236 5.96486 12.007 7.12412 12C7.86182 12 8.64168 12.1546 9.32318 11.9578C9.9836 11.7681 10.5457 11.2201 11.1499 10.8267C11.5644 10.5597 11.9789 10.2998 12.3934 10.0398C12.9414 9.70257 13.5105 9.61826 14.0866 9.94145C14.6838 10.2717 14.9649 10.7845 14.9649 11.466C14.9649 12.6464 14.9719 13.8126 14.9719 14.9859ZM13.4895 15.014C13.4895 13.8548 13.4895 12.6955 13.4895 11.5363C13.4895 11.2201 13.4051 11.171 13.1452 11.3396C12.3162 11.8595 11.4871 12.3934 10.6581 12.9133C10.5176 12.9977 10.4824 13.1101 10.4895 13.2646C10.5176 14.4379 10.5386 15.6042 10.5457 16.7775C10.5457 16.9532 10.6089 17.0515 10.7564 17.1429C11.5503 17.6347 12.3372 18.1335 13.1311 18.6323C13.2154 18.6815 13.2927 18.7869 13.4122 18.7166C13.5246 18.6464 13.4895 18.5269 13.4895 18.4286C13.4895 17.2904 13.4895 16.1522 13.4895 15.014ZM8.99297 14.993C8.99297 14.5714 8.99297 14.1499 8.99297 13.7354C8.99297 13.5948 8.99999 13.4895 8.80327 13.4965C8.23419 13.5105 7.65807 13.4965 7.08899 13.5035C6.84308 13.5035 6.7377 13.6229 6.74472 13.8759C6.75175 14.6347 6.75175 15.3934 6.74472 16.1522C6.74472 16.4122 6.85714 16.5105 7.10304 16.5105C7.6651 16.5035 8.22013 16.5035 8.78219 16.5105C8.95081 16.5105 8.99999 16.4684 8.99999 16.2998C8.98594 15.8571 8.99297 15.4215 8.99297 14.993Z" fill="white"/>
<path d="M21.9273 15.3865C21.8921 17.0164 21.1544 18.7377 19.679 20.1359C19.2856 20.5082 18.857 20.5223 18.5338 20.1921C18.2177 19.8689 18.2598 19.4192 18.6392 19.0539C21.028 16.7284 21.028 13.2787 18.6533 10.9462C18.2668 10.5668 18.2177 10.1312 18.5198 9.808C18.843 9.46374 19.2786 9.48481 19.6931 9.87123C21.1053 11.164 21.9273 13.0398 21.9273 15.3865Z" fill="white"/>
<path d="M18.7516 4.49647C17.3114 4.49647 15.8711 4.49647 14.4378 4.49647C14.2411 4.49647 14.0374 4.51052 13.8617 4.39108C13.5877 4.20138 13.4472 3.94143 13.5175 3.61122C13.5877 3.28101 13.8055 3.08429 14.1357 3.01403C14.213 2.99998 14.2973 3.00701 14.3816 3.00701C17.2973 3.00701 20.206 3.00701 23.1217 3.00701C23.5994 3.00701 23.9156 3.23886 23.9718 3.61825C24.0491 4.11708 23.7259 4.48944 23.1779 4.49647C22.1451 4.50349 21.1193 4.49647 20.0865 4.49647C19.6369 4.49647 19.1943 4.49647 18.7516 4.49647Z" fill="white"/>
<path d="M19.0818 14.9719C19.0888 16.3771 18.5478 17.6769 17.3956 18.6956C17.0092 19.0399 16.5736 19.0328 16.2785 18.7096C15.9764 18.3794 16.0256 17.9298 16.412 17.5715C17.9647 16.1312 17.9787 13.9251 16.4471 12.4567C16.0818 12.1054 15.9975 11.7682 16.1802 11.431C16.3417 11.1359 16.679 11.0024 17.0232 11.0797C17.1919 11.1148 17.3183 11.2202 17.4378 11.3256C18.4354 12.2108 19.0045 13.4263 19.0818 14.9719Z" fill="white"/>
<path d="M3.75168 4.49647C3.32311 4.49647 2.99992 4.17329 3.00695 3.74472C3.01397 3.33722 3.33716 3.01404 3.74465 3.01404C4.15917 3.01404 4.50344 3.3583 4.49641 3.77282C4.48938 4.17329 4.15917 4.49647 3.75168 4.49647Z" fill="white"/>
<path d="M6.75156 4.49652C6.33002 4.49652 5.98576 4.15929 5.99278 3.74477C5.99981 3.3443 6.33704 3.01409 6.73751 3.00706C7.15203 3.00004 7.50332 3.35132 7.49629 3.76584C7.48927 4.16631 7.15906 4.4895 6.75156 4.49652Z" fill="white"/>
<path d="M10.4826 3.75179C10.4826 4.18037 10.1594 4.50355 9.72384 4.49653C9.31635 4.4895 8.99316 4.16631 8.99316 3.75882C8.99316 3.3443 9.34445 3.00004 9.75897 3.00706C10.1665 3.01409 10.4826 3.3443 10.4826 3.75179Z" fill="white"/>
</g>
<defs>
<clipPath id="clip0_828_1195">
<rect width="26.9789" height="24" fill="white"/>
</clipPath>
</defs>
</svg>
