<svg width="28" height="25" viewBox="0 0 28 25" fill="none" xmlns="http://www.w3.org/2000/svg">
<g clip-path="url(#clip0_831_1229)">
<path d="M0.00800229 11.5636C0.00800229 9.14281 0.0160046 6.71437 0 4.29354C0 3.98143 0.0880252 3.74543 0.328094 3.52467C1.46442 2.45889 2.59274 1.37789 3.72106 0.289281C3.93713 0.0837393 4.16119 0 4.46528 0C8.0503 0.00761267 11.6433 0.00761267 15.2284 0.00761267C15.8605 0.00761267 15.9726 0.11419 15.9726 0.715591C15.9726 2.74817 15.9886 4.77314 15.9646 6.80573C15.9566 7.2092 16.0846 7.23203 16.4607 7.19397C19.6136 6.87424 22.5024 7.50609 24.9991 9.4321C26.6316 10.6958 27.6959 12.3097 27.944 14.3194C28.1841 16.2607 27.5999 18.0116 26.3115 19.5341C24.7511 21.3764 22.6785 22.4269 20.2698 22.9065C18.1332 23.3252 16.0286 23.1806 13.972 22.4954C13.7319 22.4117 13.5639 22.4954 13.3718 22.5792C11.6993 23.3557 10.0189 24.1245 8.34639 24.901C8.06631 25.0305 7.81023 25.0761 7.59417 24.8249C7.46613 24.6803 7.47414 24.5128 7.54616 24.3301C8.09031 22.8761 8.61046 21.4144 9.16262 19.9604C9.28265 19.6483 9.20263 19.6102 8.89054 19.6102C6.19377 19.6178 3.505 19.6178 0.808231 19.6178C0.10403 19.6178 0 19.5189 0 18.849C0.00800229 16.4129 0.00800229 13.9845 0.00800229 11.5636ZM8.10632 13.1623C8.35439 12.4543 8.69849 11.7996 9.1066 11.1602C9.37068 10.8404 9.62675 10.5283 9.89083 10.2086C9.91483 10.1934 9.93884 10.1858 9.95485 10.1629C11.2992 8.85353 12.8997 7.96285 14.7562 7.50609C15.0043 7.44519 15.0043 7.29294 15.0043 7.11023C15.0043 5.169 14.9963 3.22777 15.0123 1.28654C15.0123 0.982034 14.9083 0.943971 14.6282 0.943971C11.4673 0.951583 8.30637 0.951583 5.14547 0.943971C4.82538 0.943971 4.70534 1.00487 4.72135 1.33222C4.74536 2.16961 4.73735 3.007 4.72935 3.8444C4.72935 4.35445 4.57731 4.49909 4.03315 4.49909C3.1529 4.5067 2.27265 4.5067 1.3924 4.49147C1.10432 4.48386 0.984281 4.53715 0.984281 4.85688C1.00029 9.33313 1.00029 13.8094 0.984281 18.2856C0.984281 18.6054 1.10432 18.651 1.3924 18.651C2.85682 18.6358 4.32924 18.6434 5.79366 18.6434C6.79394 18.6434 7.79423 18.6434 8.82652 18.6434C8.65847 18.3085 8.49843 18.004 8.36239 17.6918C7.85024 16.5347 7.73821 15.3167 7.87425 14.0758C7.95427 13.7789 8.02629 13.4744 8.10632 13.1623ZM8.85853 23.5993C9.06659 23.5079 9.18663 23.4622 9.29866 23.409C10.627 22.7923 11.9554 22.1833 13.2838 21.5667C13.5479 21.4449 13.7879 21.4144 14.084 21.521C15.2123 21.9321 16.3807 22.1453 17.589 22.1681C19.9497 22.2138 22.1263 21.6733 24.0389 20.3182C25.5833 19.2296 26.6396 17.8213 26.9277 15.9714C27.2398 13.9616 26.5516 12.2412 25.1032 10.7948C23.4787 9.18088 21.4461 8.3511 19.1335 8.1151C16.4767 7.84105 14.02 8.35871 11.8354 9.85841C8.49843 12.1498 7.85024 16.0094 10.2429 18.9099C10.419 19.123 10.443 19.3286 10.347 19.5798C9.85882 20.8892 9.37868 22.1985 8.85853 23.5993ZM3.72907 1.69001C3.06488 2.32186 2.42469 2.93088 1.7525 3.57034C2.36868 3.57034 2.96085 3.57034 3.54501 3.57034C3.68105 3.57034 3.72907 3.51705 3.72907 3.39525C3.72907 2.8243 3.72907 2.26858 3.72907 1.69001Z" fill="white"/>
<path d="M9.10641 11.1678C7.37792 11.1602 5.64142 11.1602 3.91293 11.1449C3.76889 11.1449 3.51281 11.1678 3.50481 11.0384C3.48881 10.7795 3.48081 10.4902 3.52082 10.2543C3.53682 10.1781 3.66486 10.201 3.73688 10.201C5.78546 10.201 7.83405 10.2086 9.89064 10.2162C9.63456 10.5283 9.37049 10.848 9.10641 11.1678Z" fill="white"/>
<path d="M7.87416 14.0834C6.54578 14.0834 5.2094 14.0758 3.88102 14.0834C3.57693 14.0834 3.51291 14.0834 3.48891 13.7104C3.48091 13.6342 3.48891 13.5581 3.48891 13.482C3.48091 13.1394 3.54492 13.1394 3.83301 13.1394C5.25741 13.1546 6.68182 13.147 8.10623 13.147C8.02621 13.4744 7.95418 13.7789 7.87416 14.0834Z" fill="white"/>
<path d="M20.5897 15.2101C20.5897 16.1693 20.5737 17.1361 20.5977 18.0953C20.6058 18.3922 20.5017 18.4531 20.2136 18.4454C19.6535 18.4302 19.6535 18.4454 19.6535 17.8973C19.6535 16.9077 19.6535 15.918 19.6535 14.936C19.6535 14.0529 19.6615 13.1623 19.6455 12.2792C19.6375 12.0051 19.7335 11.9138 20.0056 11.9518C20.0936 11.9671 20.1896 11.9671 20.2857 11.9518C20.5337 11.9214 20.5977 12.0204 20.5977 12.2487C20.5817 13.2384 20.5897 14.2204 20.5897 15.2101Z" fill="white"/>
<path d="M17.4132 15.2025C17.4132 16.0094 17.4052 16.824 17.4212 17.6309C17.4292 17.8822 17.3891 17.9887 17.0851 17.9811C16.5009 17.9659 16.5009 17.9811 16.5009 17.4178C16.5009 15.8724 16.5169 14.327 16.4929 12.7817C16.4849 12.3782 16.7009 12.4163 16.981 12.4086C17.2611 12.401 17.4532 12.3934 17.4372 12.7664C17.3891 13.581 17.4132 14.3879 17.4132 15.2025Z" fill="white"/>
<path d="M21.2382 15.172C21.2382 14.5858 21.2462 14.0073 21.2302 13.4211C21.2222 13.2156 21.2782 13.1394 21.5103 13.1394C22.1665 13.1394 22.1665 13.1242 22.1665 13.7485C22.1665 14.799 22.1585 15.8495 22.1745 16.9001C22.1825 17.1742 22.1105 17.3036 21.8064 17.2579C21.7264 17.2427 21.6463 17.2503 21.5663 17.2579C21.3182 17.2883 21.2222 17.2122 21.2302 16.9534C21.2542 16.3672 21.2382 15.7658 21.2382 15.172Z" fill="white"/>
<path d="M14.9081 15.2101C14.9081 14.5935 14.9161 13.9693 14.9001 13.3527C14.8921 13.1167 14.9481 13.0177 15.2282 13.0253C15.9484 13.0558 15.8124 12.9568 15.8124 13.5886C15.8204 14.7305 15.8044 15.8648 15.8204 17.0067C15.8284 17.2884 15.7564 17.3798 15.4523 17.3645C14.9081 17.3417 14.9081 17.3569 14.9081 16.8469C14.9081 16.2988 14.9081 15.7583 14.9081 15.2101Z" fill="white"/>
<path d="M13.3238 15.1721C13.3238 14.7915 13.3318 14.4108 13.3158 14.0378C13.3078 13.8323 13.3638 13.7561 13.5959 13.7561C14.2521 13.7561 14.2521 13.7409 14.2521 14.3575C14.2521 15.0122 14.244 15.6745 14.2601 16.3292C14.2681 16.5652 14.204 16.6946 13.932 16.649C13.8679 16.6413 13.7959 16.6413 13.7319 16.649C13.4118 16.6946 13.2758 16.6033 13.3078 16.2683C13.3558 15.9105 13.3238 15.5375 13.3238 15.1721Z" fill="white"/>
<path d="M19.0053 15.2102C19.0053 15.5908 18.9973 15.9714 19.0133 16.3445C19.0214 16.5576 18.9813 16.6642 18.7173 16.649C17.933 16.6261 18.0931 16.7251 18.0771 16.0628C18.0691 15.3929 18.0851 14.723 18.0691 14.053C18.0611 13.8247 18.1171 13.7485 18.3732 13.7485C19.0053 13.7561 19.0053 13.7409 19.0053 14.3347C19.0053 14.6316 19.0053 14.9209 19.0053 15.2102Z" fill="white"/>
<path d="M23.7428 15.2101C23.7428 15.4385 23.7588 15.5603 23.7508 15.8876C23.7348 16.2911 23.6387 16.3672 23.2546 16.352C22.9425 16.3444 22.8145 16.2987 22.8305 15.9638C22.8625 15.4461 22.8625 14.9284 22.8305 14.4108C22.8145 14.0987 22.9345 14.0149 23.2306 14.053C23.3346 14.0682 23.4467 14.0606 23.5507 14.053C23.7108 14.0378 23.7508 14.1139 23.7508 14.2509C23.7348 14.5783 23.7428 14.8904 23.7428 15.2101Z" fill="white"/>
<path d="M11.059 15.2102C11.059 15.3243 11.067 15.4538 11.083 15.5603C11.147 15.9181 10.979 15.979 10.6349 15.9866C10.2268 16.0019 10.1147 15.8877 10.1467 15.5071C10.1708 15.2178 10.1708 15.0046 10.1467 14.7534C10.1227 14.4793 10.2428 14.3956 10.5068 14.4261C10.5949 14.4413 10.6909 14.4413 10.7869 14.4261C11.043 14.388 11.107 14.5022 11.083 14.7229C11.067 14.8904 11.059 15.0427 11.059 15.2102Z" fill="white"/>
<path d="M12.6838 15.172C12.6838 15.271 12.6838 15.3776 12.6838 15.4765C12.6838 15.9714 12.6838 15.9561 12.1636 15.979C11.8356 15.9942 11.6675 15.9333 11.7235 15.5755C11.7555 15.3623 11.7315 15.1492 11.7315 14.936C11.7315 14.4336 11.7315 14.4336 12.2517 14.4336C12.6838 14.4336 12.6838 14.4336 12.6838 15.172Z" fill="white"/>
<path d="M25.3272 15.2406C25.3272 15.3395 25.3112 15.4461 25.3272 15.5451C25.3992 15.9257 25.2232 15.9866 24.8551 15.9942C24.463 16.0018 24.3349 15.8952 24.3909 15.5298C24.4229 15.3319 24.4149 15.1264 24.3909 14.9284C24.3429 14.5478 24.455 14.3879 24.8951 14.426C25.3192 14.4641 25.3272 14.4336 25.3272 15.2406Z" fill="white"/>
<path d="M7.96219 8.19885C6.6018 8.19885 5.24141 8.19124 3.88102 8.20647C3.57693 8.20647 3.50491 8.14556 3.48891 7.83345C3.48091 7.67358 3.48891 7.60507 3.48891 7.49088C3.48891 7.35385 3.56893 7.24727 3.74498 7.2625C3.809 7.27011 3.88102 7.2625 3.94504 7.2625C6.66582 7.2625 9.37859 7.27011 12.0994 7.25488C12.4435 7.25488 12.5555 7.3234 12.5315 7.66597C12.4995 8.19885 12.5235 8.19885 11.9553 8.19885C10.6269 8.19885 9.29057 8.19885 7.96219 8.19885Z" fill="white"/>
</g>
<defs>
<clipPath id="clip0_831_1229">
<rect width="28" height="25" fill="white"/>
</clipPath>
</defs>
</svg>
