<svg width="24" height="22" viewBox="0 0 24 22" fill="none" xmlns="http://www.w3.org/2000/svg">
<g clip-path="url(#clip0_831_1261)">
<path d="M19.3721 17.2349C19.3721 18.1112 19.353 19.0058 19.3912 19.8822C19.4104 20.3568 19.2574 20.4846 18.7602 20.4846C13.2143 20.4664 7.66853 20.4664 2.12271 20.4846C1.66375 20.4846 1.52988 20.3568 1.52988 19.9187C1.52988 14.7884 1.52988 9.63983 1.52988 4.50954C1.52988 4.05311 1.64462 3.88879 2.16096 3.88879C3.63347 3.90705 5.08685 3.87054 6.55936 3.87054H6.65498H6.84622C6.84622 2.59253 7.0757 2.44647 5.87092 2.44647C4.22629 2.44647 2.58167 2.3917 0.917928 2.40995C0.631076 2.40995 0.286853 2.2639 0.076494 2.62904C0.076494 2.68381 0.076494 2.75684 0.0573705 2.81161C0.0191235 4.69211 0 6.59087 0 8.48962C0 12.9079 0.0191235 17.3627 0.038247 21.7992C0.0191235 21.9452 0.0956175 22 0.229482 22C7.05657 22 13.8837 22 20.7108 22C20.8446 22 20.902 21.927 20.8829 21.7992C20.8829 20.0282 20.8829 18.239 20.8829 16.4863C20.8829 16.4315 20.8637 16.3585 20.8637 16.3037C19.506 15.9203 19.3721 15.9934 19.3721 17.2349Z" fill="white"/>
<path d="M23.9807 6.42658C23.8851 5.11206 23.0054 4.4548 21.858 3.8158C21.858 5.60501 21.858 7.28468 21.858 8.9826C21.858 9.14692 21.8389 9.27472 21.8389 9.47555C21.8389 9.4938 22.3743 9.40252 22.5464 9.29298C23.5791 8.61746 24.0763 7.66808 23.9807 6.42658Z" fill="white"/>
<path d="M20.6918 12.9991C20.5388 12.9991 20.3858 13.0174 20.252 13.0174C20.4049 13.2365 20.5579 13.4191 20.6918 12.9991Z" fill="white"/>
<path d="M4.81908 14.8796C8.64379 14.8796 12.4685 14.8796 16.2932 14.8796C16.4271 14.8796 16.5035 14.8249 16.4844 14.6788C16.4844 14.3137 16.4844 13.9485 16.4844 13.5834C16.5035 13.4373 16.4271 13.4191 16.2932 13.4191C12.4685 13.4191 8.64379 13.4191 4.81908 13.4191C4.68522 13.4191 4.64697 13.4008 4.64697 13.5469C4.64697 13.912 4.64697 14.2772 4.64697 14.6423C4.64697 14.7884 4.68522 14.8796 4.81908 14.8796Z" fill="white"/>
<path d="M9.61915 10.6257C9.75302 10.9726 10.059 10.79 10.2694 10.79C11.7419 10.8083 13.2144 10.9178 14.6678 10.7718C16.8478 10.5527 18.416 11.1917 19.9458 12.8166C20.0606 12.9444 20.3474 13.2182 20.4431 13.273C20.596 13.273 20.6152 13.2182 20.6917 12.9991C20.6917 8.7452 20.6917 4.473 20.6917 0.219063C20.596 0.219063 20.5004 0.200806 20.4048 0.200806C19.7546 0.803295 19.047 1.38753 18.4351 2.04479C17.9952 2.51948 17.498 2.66554 16.8478 2.64728C14.4956 2.62902 12.1626 2.66554 9.81039 2.68379C9.56178 2.64728 9.58091 2.79334 9.58091 2.93939C9.58091 5.44064 9.58091 7.94188 9.58091 10.4249C9.61915 10.5162 9.58091 10.5709 9.61915 10.6257Z" fill="white"/>
<path d="M16.2932 16.1577C12.4685 16.1577 8.64378 16.1577 4.79996 16.1577C4.60872 16.1577 4.60872 16.1577 4.60872 16.322C4.60872 16.6324 4.60872 16.9063 4.60872 17.2166C4.55135 17.6183 4.87645 17.5453 5.10593 17.5453C8.7394 17.5453 12.3537 17.5453 15.9872 17.5453C16.2167 17.5453 16.5418 17.6183 16.4844 17.2166C16.4844 16.9063 16.4844 16.6507 16.4844 16.3403C16.5035 16.1577 16.5035 16.1577 16.2932 16.1577Z" fill="white"/>
<path d="M20.5959 0C20.5386 0.073029 20.4812 0.127801 20.4238 0.20083C20.5194 0.20083 20.6151 0.219087 20.7107 0.219087C20.6724 0.146058 20.6342 0.073029 20.5959 0Z" fill="white"/>
</g>
<defs>
<clipPath id="clip0_831_1261">
<rect width="24" height="22" fill="white"/>
</clipPath>
</defs>
</svg>
