<svg width="24" height="22" viewBox="0 0 24 22" fill="none" xmlns="http://www.w3.org/2000/svg">
<g clip-path="url(#clip0_829_1215)">
<path d="M23.9999 11.6294C23.9477 14.7119 22.9259 17.5156 20.8377 19.9048C20.4648 20.3344 20.2336 20.3419 19.8383 19.95C18.906 19.0305 18.921 19.0984 19.7041 18.1261C22.8439 14.207 22.7469 8.5242 19.4952 4.70302C18.9806 4.10008 18.9881 3.98703 19.5549 3.41423C20.3156 2.64547 20.4275 2.64547 21.0838 3.45191C22.9931 5.79586 23.9626 8.49405 23.9999 11.6294Z" fill="white"/>
<path d="M19.9877 11.5465C19.9802 13.6342 19.309 15.4732 17.9815 17.071C17.6682 17.4478 17.3923 17.478 17.0492 17.1313C16.1617 16.2344 16.0946 16.3173 16.818 15.2772C18.5036 12.873 18.3842 9.78286 16.5868 7.46905C16.1841 6.95655 16.199 6.80581 16.6614 6.33099C17.5191 5.46426 17.6235 5.47179 18.3395 6.45912C19.4209 7.94387 19.9952 9.69995 19.9877 11.5465Z" fill="white"/>
<path d="M13.4768 20.9599C11.7092 19.1812 9.68065 18.2466 7.40595 17.8396C6.48115 17.6738 5.52652 17.6135 4.5868 17.5532C3.71421 17.5005 3.34131 17.1538 3.34131 16.2644C3.34131 11.2751 3.34131 6.27815 3.34131 1.28877C3.34877 0.376811 3.74404 -0.0301777 4.63155 -3.03403e-05C6.94355 0.0904116 9.18096 0.4974 11.0977 1.90679C11.7764 2.40422 12.3506 3.06746 12.9398 3.67794C13.3724 4.13015 13.4917 4.68788 13.4917 5.32851C13.4693 10.2802 13.4768 15.2394 13.4768 20.1911C13.4768 20.3946 13.4768 20.5981 13.4768 20.9599Z" fill="white"/>
<path d="M1.77502 3.63272C1.77502 3.8739 1.77502 4.07739 1.77502 4.28088C1.77502 8.26033 1.77502 12.2322 1.77502 16.2117C1.77502 18.0657 2.78185 19.0832 4.60907 19.1435C7.13735 19.234 9.53884 19.7465 11.5823 21.3819C11.6569 21.4422 11.7315 21.495 11.7986 21.5628C11.821 21.5854 11.8285 21.6231 11.8807 21.7286C11.3959 21.6457 10.9559 21.5628 10.5158 21.495C7.46551 21.0353 4.45246 21.3367 1.45432 21.9547C0.484773 22.1507 0 21.7437 0 20.7564C0 15.5409 0 10.3254 0 5.10994C0 3.78345 0.357986 3.47444 1.77502 3.63272Z" fill="white"/>
</g>
<defs>
<clipPath id="clip0_829_1215">
<rect width="24" height="22" fill="white"/>
</clipPath>
</defs>
</svg>
