<svg width="27" height="25" viewBox="0 0 27 25" fill="none" xmlns="http://www.w3.org/2000/svg">
<g clip-path="url(#clip0_831_1246)">
<path d="M16.3979 14.6742C16.3857 13.6466 16.3735 12.6316 16.3857 11.604C16.3857 11.2656 16.3369 11.1027 15.9587 11.015C13.6161 10.4386 11.9691 8.43357 11.7617 5.95236C11.5664 3.63407 12.9329 1.41602 15.1168 0.438578C15.6415 0.200483 16.2149 0.0751697 16.7639 0.050107C18.472 -0.025081 20.1801 -0.0376123 21.876 0.0375757C23.218 0.087701 24.3283 0.701736 25.341 1.65412C28.1227 4.2857 27.3053 9.11026 23.7427 10.7143C22.7056 11.1779 21.6076 11.2155 20.5217 11.1529C19.9117 11.1153 19.5091 11.3283 19.1308 11.817C18.35 12.8446 17.5203 13.8596 16.6297 14.7995C16.5809 14.7118 16.4955 14.6742 16.3979 14.6742ZM19.204 7.15537C19.8751 7.1679 20.4729 6.60399 20.4851 5.9273C20.5095 5.25061 19.9361 4.62404 19.2772 4.59898C18.5696 4.57392 17.9718 5.16289 17.9718 5.87717C17.9718 6.57893 18.5208 7.14284 19.204 7.15537ZM24.4625 5.91477C24.4625 5.17542 23.9135 4.59898 23.2058 4.61151C22.5226 4.62404 21.9492 5.20048 21.998 5.90224C22.059 6.7669 22.3274 7.13031 23.2302 7.1679C23.9257 7.18043 24.4625 6.61652 24.4625 5.91477ZM15.2266 7.1679C15.8855 7.15537 16.4833 6.55387 16.4711 5.88971C16.4589 5.21301 15.8733 4.62404 15.2144 4.62404C14.5068 4.62404 13.9212 5.22555 13.9456 5.93983C13.97 6.61652 14.5556 7.1679 15.2266 7.1679Z" fill="white"/>
<path d="M13.2135 10.7894C13.7382 11.2656 14.3604 11.5538 15.007 11.8045C15.1168 11.842 15.1778 11.8922 15.1656 12.0175C15.2022 12.0676 15.2388 12.1303 15.2754 12.1804C15.2754 12.9699 15.2754 13.7719 15.2754 14.5613C15.2388 14.624 15.2144 14.6867 15.1778 14.7493C14.5312 15.1628 14.0676 14.9999 13.8846 14.2857C13.5185 12.8446 12.8231 12.2806 11.3712 12.2305C10.9686 12.218 10.5538 12.2305 10.1512 12.2305C9.76075 12.2305 9.55334 12.406 9.55334 12.8446C9.56554 15.9774 9.55334 19.1102 9.56554 22.243C9.56554 22.9072 9.93156 23.2205 10.627 23.233C11.8105 23.2581 11.8105 23.2581 11.7006 24.4736C11.6884 24.624 11.6762 24.7618 11.542 24.8621C11.481 24.8997 11.4322 24.9373 11.3712 24.9749C8.8945 25.0501 6.40557 25.0375 3.92884 24.9749C3.86784 24.9373 3.80684 24.8997 3.73363 24.8621C3.41642 24.411 3.61163 23.8972 3.59943 23.4085C3.58723 23.1704 3.84344 23.233 3.98985 23.2456C5.73454 23.3709 5.77114 22.807 5.75894 21.3032C5.73454 18.5714 5.74674 15.8395 5.74674 13.0952C5.74674 12.3182 5.66133 12.243 4.9171 12.2305C4.57548 12.2305 4.22166 12.218 3.88004 12.2305C2.48917 12.2806 1.74493 12.9072 1.40331 14.2731C1.2203 15.0125 0.622473 15.1879 0.0490435 14.6741C0.0612441 14.6616 0.0856454 14.6365 0.0856454 14.6365C0.0734447 14.6115 0.0490435 14.5864 0.0246422 14.5613C-0.0119597 13.0576 -0.0241603 11.5538 0.0368428 10.0501C0.0734447 9.99994 0.097846 9.93729 0.134448 9.88716C0.256454 9.69919 0.451664 9.71172 0.622473 9.71172C4.44127 9.72425 8.26007 9.72425 12.0911 9.73678C12.1155 9.8245 12.1643 9.88716 12.2741 9.84957L12.3107 9.88716C12.2863 9.96235 12.3107 10.0125 12.3839 10.0375C12.5791 10.238 12.7743 10.4385 12.9695 10.6265C13.0061 10.7518 13.1037 10.7894 13.2135 10.7894Z" fill="white"/>
<path d="M16.3979 14.6742C16.4956 14.6742 16.581 14.7118 16.6298 14.812C16.6054 14.9123 16.5078 14.9499 16.4468 14.8998C16.398 14.8622 16.4101 14.7619 16.3979 14.6742Z" fill="white"/>
<path d="M12.2743 9.83702C12.1767 9.87461 12.1279 9.81195 12.0913 9.72423C12.2011 9.68664 12.2377 9.76183 12.2743 9.83702Z" fill="white"/>
<path d="M13.2137 10.7894C13.1039 10.7894 13.0063 10.7518 12.9697 10.6265C13.0917 10.6015 13.1649 10.6892 13.2137 10.7894Z" fill="white"/>
<path d="M0.134226 9.87463C0.0976243 9.92476 0.073223 9.98742 0.0366211 10.0375C0.073223 9.98742 0.109825 9.92476 0.134226 9.87463Z" fill="white"/>
<path d="M12.3841 10.0376C12.3109 10.0125 12.2865 9.9624 12.3109 9.88721C12.3719 9.91227 12.4207 9.94986 12.3841 10.0376Z" fill="white"/>
<path d="M15.2753 12.1679C15.2387 12.1178 15.2021 12.0551 15.1655 12.005C15.2387 12.0301 15.2875 12.0802 15.2753 12.1679Z" fill="white"/>
<path d="M0.0366211 14.5488C0.0610224 14.5739 0.0854236 14.599 0.0976243 14.624C0.0976243 14.624 0.073223 14.6491 0.0610224 14.6616C0.0488217 14.6365 0.0366211 14.5864 0.0366211 14.5488Z" fill="white"/>
<path d="M15.1655 14.7368C15.2021 14.6741 15.2265 14.6115 15.2631 14.5488C15.2753 14.6365 15.2509 14.6992 15.1655 14.7368Z" fill="white"/>
<path d="M3.74561 24.837C3.80661 24.8746 3.86761 24.9122 3.94082 24.9498C3.84321 24.9624 3.78221 24.9248 3.74561 24.837Z" fill="white"/>
<path d="M11.3711 24.9498C11.4321 24.9122 11.4809 24.8746 11.5419 24.837C11.5175 24.9248 11.4565 24.9624 11.3711 24.9498Z" fill="white"/>
</g>
<defs>
<clipPath id="clip0_831_1246">
<rect width="27" height="25" fill="white"/>
</clipPath>
</defs>
</svg>
