<svg width="28" height="23" viewBox="0 0 28 23" fill="none" xmlns="http://www.w3.org/2000/svg">
<g clip-path="url(#clip0_825_1096)">
<path d="M22.8869 22.0392C22.5533 22.0392 22.258 21.9136 22.0064 21.6625C21.5033 21.1602 21.5033 20.4068 22.0064 19.9046C24.2705 17.6444 25.4846 14.6746 25.4846 11.4918C25.4846 8.30904 24.2268 5.30097 22.0064 3.07904C21.5033 2.57679 21.5033 1.8234 22.0064 1.32115C22.5096 0.818894 23.2643 0.818894 23.7674 1.32115C26.4908 4.04534 28.0002 7.64301 28.0002 11.4918C28.0002 15.3406 26.4908 18.9383 23.7674 21.6625C23.5596 21.9136 23.2205 22.0392 22.8869 22.0392ZM18.5283 19.6917C18.1947 19.6917 17.8994 19.5661 17.6479 19.315C17.1447 18.8127 17.1447 18.0593 17.6479 17.5571C21.0002 14.2105 21.0002 8.72941 17.6479 5.33919C17.1447 4.83693 17.1447 4.08355 17.6479 3.5813C18.151 3.07904 18.9057 3.07904 19.4088 3.5813C21.5033 5.67221 22.6791 8.47828 22.6791 11.4481C22.6791 14.418 21.5033 17.1804 19.4088 19.315C19.1572 19.5661 18.8182 19.6917 18.5283 19.6917ZM14.126 17.3933C13.7924 17.3933 13.4971 17.2677 13.2455 17.0166C12.7424 16.5144 12.7424 15.761 13.2455 15.2587C15.34 13.1678 15.34 9.77759 13.2455 7.68668C12.7424 7.18443 12.7424 6.43105 13.2455 5.92879C13.7486 5.42654 14.5033 5.42654 15.0064 5.92879C18.0689 8.986 18.0689 13.9212 15.0064 16.9729C14.7549 17.2677 14.4596 17.3933 14.126 17.3933Z" fill="white"/>
<path d="M10.6859 23C10.4781 23 10.2648 22.9181 10.1008 22.7488L3.77344 16.427H0.836719C0.377344 16.427 0 16.0503 0 15.5917V7.39184C0 6.93326 0.377344 6.55657 0.836719 6.55657H3.77344L10.1008 0.234707C10.3523 -0.0164205 10.6859 -0.0600948 10.9812 0.0654689C11.2766 0.191033 11.4844 0.485834 11.4844 0.818851V22.2029C11.4844 22.5359 11.2766 22.8307 10.9812 22.9563L10.6859 23Z" fill="white"/>
</g>
<defs>
<clipPath id="clip0_825_1096">
<rect width="28" height="23" fill="white"/>
</clipPath>
</defs>
</svg>
