<svg width="28" height="24" viewBox="0 0 28 24" fill="none" xmlns="http://www.w3.org/2000/svg">
<g clip-path="url(#clip0_825_1105)">
<path d="M-0.000200891 11.9621C-0.000200891 8.83878 -0.000200891 5.72813 -0.000200891 2.60485C-0.000200891 0.859852 0.84942 0 2.57365 0C6.95919 0 11.3572 0 15.7428 0C17.442 0 18.2916 0.847208 18.3041 2.54162C18.3166 3.52792 18.2666 4.52687 18.3166 5.51317C18.3416 6.03161 18.1417 6.06955 17.7044 6.09484C17.1921 6.12013 17.1921 5.86723 17.2046 5.50053C17.2171 4.48894 17.2171 3.47734 17.2046 2.46575C17.1921 1.51739 16.8048 1.1254 15.8677 1.1254C11.3697 1.1254 6.87173 1.1254 2.37374 1.1254C1.44915 1.1254 1.08681 1.4921 1.08681 2.42782C1.08681 8.81349 1.08681 15.1992 1.08681 21.5848C1.08681 22.5079 1.46165 22.8746 2.37374 22.8746C6.87173 22.8746 11.3697 22.8746 15.8677 22.8746C16.8048 22.8746 17.1921 22.4826 17.2046 21.5342C17.2171 20.4847 17.2296 19.4225 17.1921 18.373C17.1796 17.9305 17.367 17.8925 17.7044 17.9178C18.0043 17.9431 18.3291 17.8166 18.3041 18.3604C18.2666 19.4605 18.3166 20.5479 18.2916 21.648C18.2541 23.1275 17.3795 23.9874 15.9177 24C11.3947 24.0126 6.88423 24.0126 2.36124 24C0.84942 24 -0.0126953 23.0769 -0.0126953 21.5216C-0.000200891 18.3224 -0.000200891 15.1486 -0.000200891 11.9621Z" fill="white"/>
<path d="M20.1407 17.6775C18.2416 16.5395 16.4049 15.4394 14.5557 14.3519C14.3308 14.2128 14.2559 14.0611 14.2559 13.7955C14.2684 12.5943 14.2684 11.393 14.2559 10.1917C14.2559 9.96414 14.3058 9.8124 14.5182 9.68595C16.3799 8.5732 18.2291 7.4478 20.1407 6.29712C20.1407 10.1032 20.1407 13.8461 20.1407 17.6775Z" fill="white"/>
<path d="M9.09591 4.38783C7.03433 4.38783 4.97275 4.38783 2.91117 4.38783C2.76124 4.38783 2.6238 4.38783 2.47387 4.38783C2.12403 4.37519 1.91162 4.17287 1.91162 3.83146C1.91162 3.49005 2.14901 3.28773 2.47387 3.27508C3.06111 3.24979 3.63585 3.26244 4.22309 3.26244C7.90894 3.26244 11.5948 3.26244 15.2682 3.26244C15.4306 3.26244 15.6055 3.26244 15.7679 3.26244C16.1428 3.26244 16.4051 3.49005 16.4051 3.83146C16.4051 4.17287 16.1553 4.40048 15.7679 4.38783C15.5805 4.38783 15.3931 4.38783 15.2057 4.38783C13.1691 4.38783 11.1325 4.38783 9.09591 4.38783Z" fill="white"/>
<path d="M9.1707 19.5996C11.2698 19.5996 13.3688 19.5996 15.4804 19.5996C15.9302 19.5996 16.405 19.6123 16.405 20.1686C16.405 20.6618 15.9427 20.725 15.5179 20.725C11.2698 20.7124 7.02166 20.725 2.78605 20.725C2.33625 20.725 1.88645 20.6744 1.93643 20.0801C1.97391 19.6123 2.37374 19.5996 2.74857 19.5996C4.88511 19.5996 7.02166 19.5996 9.1707 19.5996Z" fill="white"/>
<path d="M27.9999 11.9621C27.9499 14.1243 27.2253 15.9578 25.9008 17.5637C25.6385 17.8799 25.3511 18.1581 24.9638 17.8546C24.5514 17.5258 24.8138 17.197 25.0637 16.8936C26.8504 14.7187 27.3377 12.2782 26.4756 9.57218C26.2007 8.69968 25.7259 7.94099 25.1512 7.23288C24.9013 6.91675 24.464 6.57534 24.9513 6.1707C25.4011 5.804 25.6759 6.19599 25.9633 6.53741C27.2877 8.11802 27.9499 9.95153 27.9999 11.9621Z" fill="white"/>
<path d="M7.79649 7.08116C6.08476 7.08116 4.38552 7.08116 2.67378 7.08116C2.28645 7.08116 1.92412 7.03058 1.91162 6.55008C1.91162 6.06957 2.27396 6.01899 2.66129 6.01899C6.09725 6.01899 9.53322 6.03164 12.9692 6.00635C13.394 6.00635 13.4815 6.14544 13.4815 6.53743C13.4815 6.92942 13.4065 7.08116 12.9692 7.08116C11.2574 7.06852 9.53322 7.08116 7.79649 7.08116Z" fill="white"/>
<path d="M25.5512 12.0506C25.4887 13.7703 24.7765 15.2245 23.3896 16.3372C23.0898 16.5775 22.7649 16.7672 22.465 16.4005C22.1652 16.0464 22.4026 15.7682 22.6899 15.5027C25.0889 13.391 25.0889 10.5332 22.6899 8.47213C22.3901 8.20659 22.1777 7.94104 22.465 7.57434C22.7649 7.20764 23.1022 7.38467 23.3896 7.62492C24.7515 8.76296 25.5012 10.1918 25.5512 12.0506Z" fill="white"/>
<path d="M7.80894 16.9062C9.52068 16.9062 11.2199 16.9188 12.9317 16.8936C13.3565 16.8936 13.4814 16.9947 13.4939 17.4373C13.5064 17.9304 13.294 17.9557 12.9067 17.9557C9.53317 17.9431 6.15968 17.9431 2.78618 17.9431C2.38636 17.9431 1.91158 17.981 1.92407 17.3994C1.93656 16.8303 2.41135 16.8809 2.81117 16.8809C4.48543 16.9062 6.14718 16.9062 7.80894 16.9062Z" fill="white"/>
<path d="M6.34695 8.725C7.5714 8.725 8.79585 8.75029 10.0203 8.71235C10.4826 8.69971 10.5201 8.90202 10.5076 9.26873C10.4951 9.58485 10.5576 9.85039 10.0453 9.85039C7.59639 9.81246 5.14748 9.83775 2.69858 9.83775C2.28626 9.83775 1.89893 9.77452 1.91143 9.26873C1.92392 8.76293 2.33624 8.725 2.73606 8.725C3.93552 8.725 5.14748 8.725 6.34695 8.725Z" fill="white"/>
<path d="M6.34691 15.2624C5.15994 15.2624 3.98546 15.2624 2.79849 15.2624C2.38618 15.2624 1.92388 15.275 1.91139 14.7186C1.89889 14.1749 2.34869 14.1496 2.76101 14.1496C5.17243 14.1496 7.57136 14.1623 9.98278 14.137C10.4576 14.137 10.4951 14.314 10.5075 14.7186C10.52 15.1738 10.3826 15.275 9.9453 15.2624C8.75833 15.2497 7.54637 15.2624 6.34691 15.2624Z" fill="white"/>
<path d="M11.5825 11.9241C11.5825 11.393 11.62 10.8746 11.57 10.3561C11.5325 9.88828 11.7075 9.78712 12.1323 9.82505C12.6445 9.87563 13.3192 9.67331 13.6316 9.92621C13.969 10.2044 13.7191 10.9125 13.7316 11.431C13.7566 12.1896 13.7191 12.9483 13.7441 13.6944C13.7566 14.0232 13.6941 14.2002 13.3068 14.1622C12.757 14.1117 12.0448 14.3899 11.6825 14.0611C11.3451 13.7576 11.57 13.0621 11.5825 12.4931C11.595 12.3034 11.5825 12.1138 11.5825 11.9241Z" fill="white"/>
<path d="M22.0401 12.1139C22.0401 11.1149 21.7653 10.3689 21.0781 9.82513C20.7657 9.58488 20.5658 9.29404 20.8907 8.92734C21.203 8.57329 21.5154 8.75031 21.8152 8.99057C23.577 10.47 23.5895 13.4795 21.8402 14.9463C21.5279 15.2119 21.203 15.4268 20.8782 15.0348C20.5658 14.6681 20.8032 14.3899 21.1031 14.137C21.7778 13.5933 22.0401 12.8473 22.0401 12.1139Z" fill="white"/>
<path d="M5.95964 11.4689C7.04665 11.4689 8.12117 11.4942 9.20819 11.4562C9.67048 11.4436 9.70797 11.6459 9.69547 12.0126C9.69547 12.354 9.67048 12.5437 9.24567 12.5311C7.03416 12.5058 4.83514 12.5184 2.62363 12.5184C2.2488 12.5184 1.92394 12.4425 1.91145 12C1.89895 11.5195 2.26129 11.4562 2.64862 11.4562C3.76062 11.4689 4.86013 11.4689 5.95964 11.4689Z" fill="white"/>
</g>
<defs>
<clipPath id="clip0_825_1105">
<rect width="28" height="24" fill="white"/>
</clipPath>
</defs>
</svg>
