<svg width="20" height="20" viewBox="0 0 20 20" fill="none" xmlns="http://www.w3.org/2000/svg">
<g clip-path="url(#clip0_832_1275)">
<path d="M1.37362 17.4547C1.44817 17.4547 1.51207 17.4547 1.58661 17.4547C3.3438 17.4654 5.10099 17.4973 6.85818 17.4547C7.39066 17.4441 7.5504 17.6038 7.47586 18.1044C7.44391 18.3174 7.45456 18.5304 7.45456 18.7433C5.37788 18.754 3.3012 18.754 1.22453 18.7646C1.14998 18.7646 1.07543 18.7646 1.00088 18.754C0.0211184 18.7007 0.0211185 18.6688 0.0211185 17.6464C0.0211185 11.9382 0.0211185 6.23003 0.0104689 0.521832C-0.000180773 0.149095 0.0530673 0 0.479052 0C4.888 0.0212993 9.30759 0.0106496 13.7165 0.0106496C13.7165 2.09798 13.7165 4.1853 13.7165 6.27263C13.6846 6.27263 13.6526 6.28328 13.6207 6.29393C13.2693 6.28328 12.9178 6.28328 12.5664 6.27263C12.5557 4.80298 12.5344 3.33333 12.5451 1.86368C12.5557 1.4164 12.4705 1.26731 11.97 1.26731C8.58342 1.2886 5.19684 1.2886 1.81026 1.26731C1.36297 1.26731 1.25648 1.38445 1.25648 1.82109C1.27777 6.74121 1.27777 11.6507 1.27777 16.5602C1.27777 16.7199 1.28842 16.8797 1.29907 17.0394V17.1246C1.29907 17.1991 1.28842 17.2737 1.27777 17.3482C1.26712 17.3908 1.27777 17.4334 1.37362 17.4547Z" fill="white"/>
<path d="M5.62295 14.3769C5.6336 13.5463 5.6336 12.7156 5.64425 11.8849C5.6549 11.1714 5.99569 10.8093 6.70922 10.7774C7.3056 10.7561 7.91262 10.7561 8.509 10.7454C8.6155 10.7454 8.60485 10.7028 8.6794 10.6496C9.09473 10.2875 9.54202 9.96799 9.82956 9.47811C10.0106 9.36096 9.97865 9.44616 10.0106 9.36096L9.99995 9.38226C10.0425 9.33967 10.0851 9.30772 10.1277 9.26512C10.5537 8.86043 11.001 8.45575 11.4164 8.04041C11.5761 7.88067 11.7358 7.75287 11.9169 7.65702C12.3322 7.43338 12.8541 7.43338 13.2587 7.66767C13.6315 7.89132 13.7593 8.2321 13.7699 8.86043C13.7699 12.0873 13.7699 15.3248 13.7699 18.5516C13.7699 19.1267 13.6421 19.6166 13.0777 19.8828C12.492 20.1597 11.9914 19.9254 11.5761 19.542C10.6709 18.69 9.78696 17.8168 8.89239 16.9541C8.80719 16.869 8.7007 16.8051 8.60485 16.7305C7.96587 16.6453 7.32689 16.6879 6.68792 16.7092C5.75075 16.4323 5.6336 16.2726 5.6336 15.2609C5.6336 14.9946 5.62295 14.739 5.6123 14.4728C5.62295 14.4408 5.62295 14.4089 5.62295 14.3769ZM7.2417 11.9488C6.99676 11.9808 6.89026 12.1405 6.83701 12.3535C6.81571 12.3855 6.80506 12.4174 6.82636 12.4494C6.82636 12.6304 6.82636 12.8114 6.82636 12.9925C6.82636 13.0564 6.78376 13.1522 6.82636 12.9925C6.84766 13.8445 6.83701 14.3876 6.82636 15.0053C6.85831 15.3993 7.1139 15.5377 7.47599 15.5484C7.90197 15.559 8.32796 15.5697 8.74329 15.5484C9.07343 15.5271 9.29708 15.6442 9.52072 15.8679C10.394 16.7412 11.2247 17.657 12.1831 18.4344C12.7689 18.8711 12.5559 18.2641 12.5665 18.1043C12.5772 15.197 12.5772 12.2896 12.5772 9.38226C12.5772 9.26512 12.6091 9.12667 12.5559 9.00953C12.5133 8.90303 12.4068 8.84978 12.3003 8.88173C12.1725 8.92433 12.0979 9.06278 12.0021 9.14797C11.427 9.6911 10.82 10.2129 10.2981 10.82C9.64851 11.5867 8.93499 12.1086 7.87003 11.9275C7.68898 11.9275 7.51859 11.9275 7.33754 11.9382C7.3056 11.9169 7.27365 11.9169 7.2417 11.9488Z" fill="white"/>
<path d="M19.9999 13.6103C19.9041 15.6124 19.0841 17.327 17.4973 18.6689C17.1352 18.967 16.7412 18.967 16.5282 18.6476C16.2832 18.2961 16.443 18.0405 16.7412 17.7849C19.3503 15.5805 19.4888 12.0022 17.0713 9.55277C16.8051 9.28653 16.7305 9.00964 16.9967 8.7221C17.2949 8.41326 17.6251 8.42391 17.9233 8.73275C19.2225 10.0853 19.9467 11.672 19.9999 13.6103Z" fill="white"/>
<path d="M17.1246 13.8659C17.1352 15.1332 16.5814 16.1555 15.7401 17.0394C15.4632 17.327 15.1118 17.3909 14.7923 17.082C14.4728 16.7732 14.6219 16.4963 14.8881 16.2088C16.2939 14.7072 16.3045 13.0565 14.9094 11.5442C14.6538 11.2674 14.6006 10.9798 14.8775 10.7029C15.165 10.426 15.4952 10.4473 15.7827 10.7136C16.5708 11.4484 17.1246 12.7583 17.1246 13.8659Z" fill="white"/>
<path d="M5.62279 14.377C5.62279 14.4089 5.62279 14.4515 5.62279 14.4834C5.59085 14.4834 5.5589 14.4834 5.5376 14.4834C5.5589 14.4409 5.59085 14.4089 5.62279 14.377Z" fill="white"/>
<path d="M6.85815 5.02662C5.5802 5.02662 4.30224 5.01597 3.02429 5.03727C2.65155 5.04792 2.4918 4.97337 2.5131 4.54738C2.56635 3.63152 2.40661 3.76996 3.31183 3.76996C5.73994 3.75931 8.16806 3.78061 10.5962 3.75931C11.118 3.74866 11.2671 3.86581 11.2884 4.41959C11.3097 5.03727 11.0328 5.04792 10.5749 5.03727C9.33951 5.00532 8.10416 5.02662 6.85815 5.02662Z" fill="white"/>
<path d="M10 7.49735C7.6784 7.4867 5.35678 7.47605 3.03516 7.4654C2.86477 7.4654 2.58788 7.5932 2.55593 7.31631C2.51333 6.99682 2.46008 6.64538 2.59853 6.32589C2.65177 6.20874 2.82217 6.27264 2.94996 6.27264C5.14379 6.27264 7.34826 6.28329 9.54208 6.26199C9.92547 6.26199 10.0426 6.38979 10 6.75188C9.95742 6.99682 10 7.25241 10 7.49735Z" fill="white"/>
<path d="M7.4332 9.97864C5.81446 9.97864 4.19572 9.98929 2.57697 9.98929C2.50243 9.57396 2.53438 9.15862 2.55567 8.74329C4.18507 8.74329 5.81446 8.74329 7.44385 8.74329C7.44385 9.15862 7.4332 9.57396 7.4332 9.97864Z" fill="white"/>
<path d="M10.1278 9.26514C10.0852 9.30774 10.0426 9.33968 10 9.38228C10.0426 9.33968 10.0852 9.30774 10.1278 9.26514Z" fill="white"/>
<path d="M7.33755 11.9275C7.3056 11.9275 7.27365 11.9382 7.2417 11.9382C7.27365 11.9169 7.3056 11.9169 7.33755 11.9275Z" fill="white"/>
<path d="M6.8372 12.3535C6.8372 12.3855 6.82655 12.4174 6.82655 12.4494C6.80525 12.4174 6.8159 12.3855 6.8372 12.3535Z" fill="white"/>
</g>
<defs>
<clipPath id="clip0_832_1275">
<rect width="20" height="20" fill="white"/>
</clipPath>
</defs>
</svg>
