<svg width="23" height="24" viewBox="0 0 23 24" fill="none" xmlns="http://www.w3.org/2000/svg">
<g clip-path="url(#clip0_826_1164)">
<path d="M0 14.0896C0 11.8806 0 9.67164 0 7.46269C0 5.52239 1.27778 4.20896 3.13636 4.1791C4.35606 4.14925 5.54672 4.14925 6.76641 4.1791C7.23106 4.1791 7.37626 4.02985 7.4053 3.55224C7.46338 1.04478 8.50884 0 10.9482 0C13.8523 0 16.7563 0 19.6604 0C21.7222 0 22.971 1.28358 23 3.37313C23.029 5.46269 23.029 7.55224 23 9.64179C22.971 11.7612 21.7222 13.0448 19.6894 13.0448C18.6149 13.0448 17.5694 13.0746 16.4949 13.0448C15.827 13.0149 15.5657 13.194 15.5947 13.9403C15.6528 16.1194 15.6237 18.3284 15.6237 20.5075C15.6237 22.7761 14.4331 24 12.226 24C9.26389 24 6.27273 24 3.31061 24C1.24874 23.9701 0 22.7164 0 20.6567C0 18.4478 0 16.2687 0 14.0896ZM11.4419 15.5224C12.0518 15.5224 12.4293 15.5224 12.3422 16.0896C12.2551 16.5373 11.8485 16.4179 11.5581 16.4179C9.06061 16.4179 6.56313 16.4179 4.0947 16.4179C3.77525 16.4179 3.22348 16.5672 3.25253 16C3.28157 15.4627 3.80429 15.6418 4.12374 15.6418C5.8952 15.6119 7.66667 15.6119 9.40909 15.6418C10.0189 15.6119 9.9899 15.3731 9.9899 14.9552C9.9899 14.5075 9.8447 14.3284 9.40909 14.3284C8.21844 14.3582 7.02778 14.3284 5.86616 14.3284C5.14015 14.3284 4.41414 14.3284 3.68813 14.3284C3.45581 14.3284 3.22348 14.2388 3.25253 13.9403C3.25253 13.7015 3.42677 13.5522 3.68813 13.5224C3.86237 13.5224 4.03662 13.5224 4.18182 13.5224C5.83712 13.5224 7.46338 13.5224 9.11869 13.5224C9.32197 13.5224 9.49621 13.5224 9.6995 13.4925C9.81566 13.4925 9.93182 13.4328 9.96086 13.2836C9.9899 13.1343 9.93182 13.0149 9.81566 12.9851C9.08965 12.806 8.4798 12.209 7.63763 12.2687C6.44697 12.3582 5.22727 12.2985 4.00758 12.2985C3.65909 12.2985 3.25253 12.2985 3.25253 11.8209C3.25253 11.3433 3.68813 11.4328 3.97854 11.4328C5.05303 11.4328 6.09849 11.4328 7.17298 11.4328C7.34722 11.4328 7.57955 11.5224 7.66667 11.2537C7.78283 10.8657 7.78283 10.1493 7.37626 10.1493C6.38889 10.1493 4.87879 10.1493 3.89141 10.1493C3.60101 10.1493 3.25253 10.1493 3.25253 9.73134C3.25253 9.31343 3.60101 9.34328 3.89141 9.34328C4.84975 9.34328 5.83712 9.31343 6.79545 9.34328C7.2601 9.34328 7.43434 9.22388 7.43434 8.71642C7.43434 8.1791 7.20202 8.1194 6.76641 8.1194C5.83712 8.14925 4.93687 8.1194 4.00758 8.1194C3.65909 8.1194 3.25253 8.08955 3.25253 7.64179C3.25253 7.16418 3.68813 7.25373 3.97854 7.25373C4.93687 7.25373 5.92424 7.22388 6.88258 7.25373C7.28914 7.25373 7.46338 7.13433 7.43434 6.68657C7.4053 6.47761 7.4053 6.23881 7.43434 6.02985C7.46338 5.61194 7.31818 5.43284 6.91162 5.46269C5.6048 5.49254 4.29798 5.46269 2.99116 5.46269C2.00379 5.49254 1.30682 6.20896 1.30682 7.22388C1.30682 11.791 1.30682 16.3881 1.30682 20.9552C1.30682 21.9403 2.03283 22.7463 2.99116 22.7463C6.21465 22.7761 9.43813 22.7761 12.6326 22.7463C13.62 22.7463 14.375 21.9701 14.375 21.0149C14.404 18.5373 14.375 16.0299 14.375 13.5522C14.375 13.3731 14.4331 13.194 14.2298 13.1045C14.0265 13.0149 13.8523 13.1343 13.7071 13.2537C12.9811 13.9701 12.197 14.7463 11.4419 15.5224ZM11.1515 14.1791C11.7033 13.5821 12.2841 12.9851 12.8068 12.3881C13.2134 11.9104 13.649 11.7313 14.2588 11.7612C16.0593 11.791 17.8889 11.7612 19.6894 11.7612C21.2576 11.7612 21.6641 10.8358 21.6932 8.95522C21.6932 7.70149 21.8093 6.44776 21.6641 4.47761C21.4899 2.1194 21.3157 1.19403 19.3409 1.28358C16.5821 1.40299 13.8523 1.52239 11.0934 1.28358C9.40909 1.13433 8.56692 1.8209 8.56692 3.40298C8.53788 5.46269 8.53788 7.52239 8.56692 9.58209C8.56692 10.9552 9.11869 11.5522 10.4545 11.7313C10.9482 11.791 11.1806 12.0597 11.1806 12.5672C11.1225 13.1343 11.1515 13.6418 11.1515 14.1791Z" fill="white"/>
<path d="M7.86987 17.6716C9.1186 17.6716 10.3673 17.6716 11.6451 17.6716C11.9355 17.6716 12.3421 17.6119 12.313 18.0895C12.284 18.5373 11.9355 18.4477 11.6451 18.4477C9.06052 18.4477 6.47593 18.4477 3.89133 18.4477C3.60093 18.4477 3.25244 18.5074 3.25244 18.0597C3.25244 17.6119 3.60093 17.6418 3.89133 17.6418C5.22719 17.6716 6.56305 17.6716 7.86987 17.6716Z" fill="white"/>
<path d="M7.81204 19.7612C9.11886 19.7612 10.4257 19.7612 11.7325 19.7612C12.0229 19.7612 12.3714 19.7313 12.3423 20.1791C12.3423 20.5671 12.0229 20.5671 11.7615 20.5671C9.11886 20.5671 6.50522 20.5671 3.86255 20.5671C3.60118 20.5671 3.28174 20.5671 3.28174 20.1791C3.28174 19.7313 3.60118 19.7612 3.89159 19.7612C5.1984 19.7612 6.50522 19.7612 7.81204 19.7612Z" fill="white"/>
<path d="M14.3169 6.50744C14.3169 7.61192 14.3169 8.68654 14.3169 9.79102C14.3169 9.99998 14.346 10.2686 14.0846 10.3582C13.8233 10.4776 13.7071 10.2388 13.5329 10.0895C13.3005 9.88057 13.0682 9.64177 12.8649 9.40296C12.226 8.56714 11.471 8.11938 10.3675 8.29848C9.72857 8.41789 9.43816 7.99998 9.40912 7.37311C9.40912 7.28356 9.40912 7.16416 9.40912 7.0746C9.38008 4.8955 9.38008 4.8955 11.471 4.7761C11.7614 4.74625 11.9647 4.65669 12.168 4.44774C12.6036 3.97013 13.0392 3.52236 13.5038 3.0746C13.6781 2.92535 13.8233 2.62684 14.0846 2.71639C14.375 2.8358 14.2879 3.1343 14.2879 3.37311C14.3169 4.41789 14.3169 5.46266 14.3169 6.50744Z" fill="white"/>
<path d="M17.8599 4.89551C18.5569 4.89551 19.2538 4.89551 19.9508 4.89551C20.2702 4.89551 20.5606 4.92536 20.5606 5.34327C20.5606 5.76118 20.2412 5.79103 19.9218 5.79103C18.5278 5.79103 17.1048 5.79103 15.7109 5.79103C15.4205 5.79103 15.072 5.76118 15.072 5.37312C15.043 4.89551 15.3915 4.89551 15.7399 4.89551C16.4659 4.89551 17.1629 4.89551 17.8599 4.89551Z" fill="white"/>
<path d="M17.7438 7.52241C17.0468 7.52241 16.3498 7.52241 15.6528 7.52241C15.3624 7.52241 15.1011 7.46271 15.1011 7.1045C15.1011 6.74629 15.3334 6.65674 15.6238 6.65674C17.1049 6.65674 18.5859 6.65674 20.0379 6.65674C20.3283 6.65674 20.5897 6.74629 20.5607 7.1045C20.5316 7.46271 20.2703 7.52241 19.9799 7.52241C19.2539 7.55226 18.4988 7.52241 17.7438 7.52241Z" fill="white"/>
<path d="M17.8599 3.99995C17.1339 3.99995 16.4079 3.99995 15.6819 3.99995C15.3915 3.99995 15.1011 3.9701 15.1011 3.61189C15.1011 3.28353 15.3624 3.13428 15.6528 3.13428C17.1339 3.13428 18.615 3.13428 20.067 3.13428C20.3283 3.13428 20.5607 3.25368 20.5607 3.55219C20.5607 3.9104 20.2993 3.99995 20.0089 3.9701C19.3119 3.99995 18.5859 3.99995 17.8599 3.99995Z" fill="white"/>
<path d="M17.8019 9.22394C17.1049 9.22394 16.408 9.22394 15.711 9.22394C15.4496 9.22394 15.1302 9.22394 15.1011 8.83588C15.0721 8.47767 15.3625 8.41797 15.6529 8.41797C17.1049 8.41797 18.5569 8.41797 20.009 8.41797C20.2994 8.41797 20.5898 8.47767 20.5607 8.83588C20.5607 9.19409 20.2413 9.22394 19.9799 9.22394C19.2539 9.22394 18.5279 9.22394 17.8019 9.22394Z" fill="white"/>
</g>
<defs>
<clipPath id="clip0_826_1164">
<rect width="23" height="24" fill="white"/>
</clipPath>
</defs>
</svg>
