<svg width="26" height="24" viewBox="0 0 26 24" fill="none" xmlns="http://www.w3.org/2000/svg">
<g clip-path="url(#clip0_825_1121)">
<path d="M18.5324 12.4548C18.5324 12.6968 18.5324 12.871 18.5324 13.0452C18.5324 15.9774 18.5324 18.9194 18.5324 21.8516C18.5324 22.9839 17.99 23.729 17.0056 23.9516C16.8147 24 16.6038 24 16.4129 24C11.6618 24 6.91071 24 2.14955 24C0.803571 24 0 23.2258 0 21.9194C0 15.2903 0 8.66129 0 2.03226C0 0.754839 0.793527 0 2.12946 0C6.88058 0 11.6317 0 16.3929 0C17.769 0 18.5223 0.735484 18.5424 2.07097C18.5525 2.67097 18.5525 3.26129 18.5424 3.86129C18.5324 4.15161 18.5926 4.23871 18.904 4.09355C19.6373 3.75484 20.3906 3.43548 21.1339 3.11613C21.7165 2.86452 21.9074 2.97097 21.9074 3.57097C21.9074 6.74516 21.9074 9.91935 21.9074 13.1032C21.9074 13.7129 21.7266 13.829 21.144 13.5774C20.2902 13.2194 19.4364 12.8516 18.5324 12.4548ZM0.703125 11.9613C0.703125 15.2806 0.703125 18.6 0.703125 21.929C0.703125 22.9161 1.19531 23.3806 2.20982 23.371C6.9308 23.3613 11.6518 23.3419 16.3728 23.3226C17.3471 23.3226 17.8092 22.8774 17.8292 21.929C17.8393 21.1839 17.8292 20.4484 17.8292 19.7032C17.8292 17.3129 17.8292 14.9323 17.8292 12.5419C17.8292 12.3387 17.8594 12.1452 17.5882 12.029C16.5837 11.5839 15.6094 11.0903 14.4442 11.2742C14.2031 11.3129 13.942 11.2839 13.6908 11.2839C12.5056 11.2742 11.9129 10.7032 11.9029 9.55161C11.8929 8.80645 11.9431 8.06129 11.8929 7.32581C11.8125 6.09677 12.5458 5.29355 13.8616 5.41935C15.1373 5.53548 16.3426 5.36129 17.4676 4.72258C17.7087 4.5871 17.8393 4.47097 17.8292 4.18064C17.8092 3.48387 17.8292 2.79677 17.8192 2.1C17.8092 1.07419 17.3471 0.629032 16.2824 0.629032C11.6016 0.648387 6.92076 0.667742 2.22991 0.677419C1.15513 0.687097 0.703125 1.1129 0.703125 2.13871C0.703125 5.40968 0.703125 8.69032 0.703125 11.9613ZM21.1842 3.83226C19.577 4.53871 18.0301 5.22581 16.4833 5.89355C16.2522 5.99032 16.2221 6.13548 16.2221 6.34839C16.2321 7.67419 16.2321 8.99032 16.2221 10.3161C16.2221 10.6065 16.3225 10.7419 16.5837 10.8484C17.99 11.4484 19.3761 12.0677 20.7723 12.6774C20.9029 12.7355 21.0134 12.8516 21.1842 12.7935C21.1842 9.83226 21.1842 6.86129 21.1842 3.83226ZM15.529 8.36129C15.529 7.73226 15.529 7.10323 15.529 6.47419C15.529 6.28064 15.519 6.12581 15.2478 6.13548C14.625 6.15484 14.0123 6.13548 13.3895 6.14516C13.0179 6.15484 12.7667 6.33871 12.6562 6.69677C12.5658 6.97742 12.5859 7.16129 12.9777 7.14194C13.51 7.12258 14.0525 7.15161 14.5848 7.16129C14.8359 7.16129 15.0971 7.17097 15.0971 7.48065C15.0971 7.80968 14.8359 7.83871 14.5647 7.83871C14.0324 7.82903 13.49 7.85806 12.9576 7.82903C12.596 7.80968 12.6161 8.08064 12.6161 8.23548C12.6161 8.45806 12.5658 8.87419 12.9475 8.86452C13.5201 8.85484 14.0826 8.86452 14.6551 8.86452C14.8962 8.86452 15.0971 8.94193 15.1071 9.2129C15.1172 9.50323 14.9062 9.59032 14.635 9.59032C14.1328 9.59032 13.6306 9.58064 13.1283 9.59032C12.9576 9.6 12.7165 9.48387 12.6362 9.67742C12.5558 9.87097 12.6462 10.0839 12.7768 10.2677C12.9576 10.5194 13.2087 10.6065 13.51 10.6065C14.0625 10.6065 14.615 10.5968 15.1674 10.6161C15.4587 10.6258 15.5391 10.529 15.5391 10.2581C15.5089 9.61935 15.529 8.99032 15.529 8.36129Z" fill="white"/>
<path d="M25.7144 8.36125C25.6943 9.5419 25.4131 10.6548 24.6296 11.6032C24.5191 11.7387 24.3785 11.8645 24.2479 11.9806C24.0872 12.1258 23.8963 12.1742 23.7155 12C23.5247 11.8161 23.6251 11.6419 23.7859 11.4967C24.7401 10.5774 25.0414 9.43545 25.0013 8.18706C24.9711 7.06448 24.6597 6.029 23.7859 5.21609C23.6051 5.05158 23.5247 4.86771 23.7356 4.67416C23.9466 4.47093 24.1374 4.61609 24.2981 4.76126C25.2624 5.65158 25.6039 6.78384 25.7144 8.02255C25.7245 8.13867 25.7144 8.24513 25.7144 8.36125Z" fill="white"/>
<path d="M24.0066 8.55483C23.9765 9.29999 23.7655 10.2 23.0222 10.8968C22.8314 11.071 22.6204 11.2452 22.3894 10.9935C22.1684 10.7613 22.3794 10.5968 22.5401 10.4226C23.5747 9.35806 23.5747 7.34515 22.52 6.26128C22.3492 6.08709 22.1684 5.90322 22.3994 5.69032C22.6204 5.49677 22.8314 5.63225 23.0222 5.78709C23.6048 6.28064 24.0066 7.31612 24.0066 8.55483Z" fill="white"/>
<path d="M5.77574 8.4C5.18311 9 4.55029 9.52258 3.84717 9.94839C3.73668 10.0161 3.62619 10.0936 3.49561 10.1419C3.3148 10.2 3.11391 10.1903 3.01346 9.99678C2.91302 9.80323 2.99337 9.66774 3.18422 9.56129C3.86726 9.1742 4.46994 8.69032 5.02239 8.15807C5.22328 7.96452 5.30364 7.81936 5.0927 7.55807C4.45989 6.74516 3.98779 5.83549 3.66636 4.86774C3.58601 4.63549 3.49561 4.54839 3.2244 4.54839C3.03355 4.54839 2.89293 4.55807 2.72217 4.54839C2.44092 4.52903 2.02909 4.65484 2.01904 4.21936C2.01904 3.80323 2.42083 3.87097 2.71212 3.87097C3.46547 3.87097 4.21882 3.85161 4.97217 3.89032C5.34382 3.90968 5.49449 3.82258 5.43422 3.44516C5.40409 3.27097 5.43422 3.0871 5.43422 2.9129C5.43422 2.65161 5.39404 2.34194 5.77574 2.33226C6.15744 2.32258 6.14739 2.62258 6.13735 2.89355C6.13735 3.11613 6.15744 3.34839 6.13735 3.57097C6.11726 3.82258 6.19761 3.9 6.46882 3.9C7.30253 3.89032 8.13623 3.90968 8.97998 3.91936C9.2311 3.91936 9.54248 3.9 9.54248 4.23871C9.54248 4.57742 9.2311 4.54839 8.97998 4.54839C8.04583 4.55807 8.03578 4.55807 7.68422 5.40968C7.37284 6.1742 6.9811 6.9 6.45878 7.55807C6.26793 7.79032 6.30811 7.92581 6.509 8.11936C7.04136 8.6129 7.59382 9.06774 8.23668 9.43549C8.4677 9.56129 8.70877 9.71613 8.53802 9.99678C8.35721 10.2968 8.08601 10.1613 7.84494 10.0161C7.0715 9.58065 6.40855 9.01936 5.77574 8.4ZM7.20208 4.57742C6.23779 4.57742 5.30364 4.57742 4.33936 4.57742C4.66078 5.57419 5.13288 6.44516 5.77574 7.2871C6.4186 6.44516 6.90074 5.56452 7.20208 4.57742Z" fill="white"/>
<path d="M9.24128 21.6387C7.05155 21.6387 4.85177 21.6387 2.66204 21.6387C2.51137 21.6387 2.3607 21.6387 2.21003 21.6193C2.01918 21.5903 1.90869 21.4838 1.90869 21.2903C1.90869 21.1064 2.02923 20.9903 2.21003 20.9613C2.34061 20.9419 2.47119 20.9419 2.61182 20.9419C7.05155 20.9419 11.4812 20.9419 15.921 20.9419C16.0716 20.9419 16.2223 20.9419 16.3629 20.9806C16.5538 21.029 16.6241 21.1742 16.614 21.3483C16.604 21.5129 16.4835 21.6096 16.3127 21.629C16.162 21.6483 16.0114 21.6483 15.8607 21.6483C13.6609 21.6387 11.4511 21.6387 9.24128 21.6387Z" fill="white"/>
<path d="M9.24107 18.8323C7.05134 18.8323 4.86161 18.8323 2.66183 18.8323C2.51116 18.8323 2.36049 18.8323 2.20982 18.8129C2.01897 18.7839 1.89844 18.6774 1.89844 18.4936C1.89844 18.3097 2.00893 18.1936 2.19978 18.1549C2.33036 18.1355 2.46094 18.1355 2.60156 18.1355C7.03125 18.1355 11.471 18.1355 15.9007 18.1355C16.0212 18.1355 16.1317 18.1355 16.2522 18.1452C16.4632 18.1645 16.6038 18.2807 16.6038 18.4839C16.6138 18.6968 16.4732 18.8032 16.2623 18.8226C16.1317 18.8323 15.9911 18.8323 15.8605 18.8323C13.6607 18.8323 11.4509 18.8323 9.24107 18.8323Z" fill="white"/>
<path d="M9.30125 16.0645C7.07134 16.0645 4.85148 16.0645 2.62157 16.0645C2.50103 16.0645 2.39054 16.0645 2.27001 16.0645C2.05907 16.0548 1.9084 15.9387 1.91844 15.7355C1.91844 15.5322 2.05907 15.4161 2.27001 15.3968C2.35036 15.3871 2.44076 15.3968 2.52112 15.3968C7.01108 15.3968 11.491 15.3968 15.9809 15.3968C16.0814 15.3968 16.1818 15.3871 16.2823 15.4064C16.4932 15.4355 16.6138 15.5613 16.6037 15.7645C16.5937 15.9484 16.4731 16.0548 16.2823 16.0742C16.1517 16.0839 16.0111 16.0742 15.8805 16.0742C13.6908 16.0645 11.491 16.0645 9.30125 16.0645Z" fill="white"/>
<path d="M5.72535 13.2581C4.64053 13.2581 3.55571 13.2581 2.47089 13.2581C2.20973 13.2581 1.91843 13.2484 1.92848 12.9194C1.93852 12.6097 2.20973 12.5807 2.48093 12.5807C4.68071 12.5807 6.89053 12.5807 9.09031 12.5807C9.37156 12.5807 9.62267 12.6291 9.63272 12.9388C9.64276 13.2775 9.34142 13.2678 9.08026 13.2678C7.96531 13.2581 6.84031 13.2581 5.72535 13.2581Z" fill="white"/>
<path d="M19.9288 8.37094C19.9288 7.51933 19.9288 6.66772 19.9288 5.8161C19.9288 5.56449 19.8986 5.24514 20.2803 5.23546C20.662 5.22578 20.652 5.52578 20.652 5.78707C20.652 7.50965 20.652 9.23223 20.652 10.9451C20.652 11.2064 20.6319 11.458 20.2803 11.458C19.9288 11.4484 19.9288 11.1774 19.9288 10.9258C19.9288 10.0742 19.9288 9.22255 19.9288 8.37094Z" fill="white"/>
</g>
<defs>
<clipPath id="clip0_825_1121">
<rect width="25.7143" height="24" fill="white"/>
</clipPath>
</defs>
</svg>
