<svg width="23" height="24" viewBox="0 0 23 24" fill="none" xmlns="http://www.w3.org/2000/svg">
<g clip-path="url(#clip0_826_1144)">
<path d="M14.6756 21.5822C14.0852 22.0789 13.4011 22.1257 12.6889 22.1257C9.50261 22.1163 6.31635 22.1163 3.1301 22.1163C2.30542 22.1163 1.47137 22.2007 0.768521 21.5728C0.674807 22.5849 1.2652 23.2503 2.23982 23.2784C3.03638 23.2971 3.83295 23.2878 4.62951 23.2878C5.96961 23.2878 7.31909 23.2878 8.65919 23.2878C8.77164 23.2878 8.87473 23.2878 8.98719 23.2878C9.2121 23.3065 9.39015 23.3908 9.38078 23.6532C9.37141 23.9063 9.20273 23.9906 8.96844 23.9906C6.65372 23.9906 4.34837 24.0187 2.03365 23.9719C0.890348 23.9531 0.0281848 22.941 0.0188135 21.7321C0.00944214 20.064 0.0188135 18.3866 0.0188135 16.7185C0.0188135 11.9672 0.0188135 7.22529 0.0188135 2.47402C7.07982e-05 0.880893 0.890348 -1.32943e-05 2.49285 -1.32943e-05C2.68027 -1.32943e-05 2.8677 0.00935804 3.05513 -1.32943e-05C3.31752 -0.00938463 3.55181 0.0562147 3.54244 0.365469C3.54244 0.684094 3.28941 0.712208 3.03638 0.712208C2.7365 0.712208 2.44599 0.702837 2.14611 0.72158C1.24646 0.777808 0.69355 1.42443 0.759149 2.43653C1.462 1.78991 2.30542 1.88363 3.1301 1.88363C4.02038 1.88363 4.91065 1.893 5.80093 1.88363C6.27887 1.87425 6.62561 2.04294 6.88801 2.46465C7.29097 3.12064 8.17188 3.13939 8.60296 2.48339C8.89347 2.03357 9.25895 1.87425 9.77438 1.88363C10.7865 1.90237 11.808 1.90237 12.8201 1.88363C13.4948 1.87425 14.1227 1.9586 14.6662 2.40842C14.8068 1.61186 14.3101 0.890264 13.5417 0.759065C13.3261 0.72158 13.1106 0.72158 12.8857 0.72158C10.3554 0.72158 7.82514 0.72158 5.29488 0.72158C5.17305 0.72158 5.04185 0.72158 4.92002 0.72158C4.68574 0.693466 4.49831 0.618495 4.49831 0.356098C4.49831 0.112443 4.667 -1.32943e-05 4.90128 -1.32943e-05C4.97625 -1.32943e-05 5.06059 -1.32943e-05 5.13556 -1.32943e-05C7.77828 -1.32943e-05 10.4116 -1.32943e-05 13.0543 -1.32943e-05C14.5069 -1.32943e-05 15.4253 0.909007 15.4347 2.36156C15.444 3.92658 15.4534 5.48222 15.4253 7.04723C15.4159 7.4502 15.5378 7.52517 15.9126 7.5158C17.6182 7.49706 19.3144 7.50643 21.02 7.50643C21.8072 7.50643 22.0977 7.78757 22.0977 8.57476C22.0977 11.3393 22.0977 14.1039 22.0977 16.8684C22.0977 17.6368 21.8165 17.9086 21.0575 17.9086C19.3425 17.9086 17.6182 17.9274 15.9032 17.8992C15.5003 17.8899 15.4159 18.0211 15.4253 18.3959C15.4534 19.4736 15.444 20.5513 15.4347 21.629C15.4253 23.0816 14.5069 23.9906 13.0543 23.9906C12.3046 23.9906 11.5549 23.9906 10.8052 23.9906C10.5335 23.9906 10.3179 23.9156 10.3273 23.6158C10.3367 23.344 10.5616 23.2784 10.7959 23.2784C11.5924 23.2784 12.389 23.2971 13.1855 23.269C14.1789 23.2596 14.7787 22.5755 14.6756 21.5822ZM0.721664 11.9766C0.721664 14.5349 0.721664 17.0933 0.721664 19.6611C0.721664 20.8512 1.2652 21.4041 2.46473 21.4041C4.99499 21.4041 7.52526 21.4041 10.0555 21.4041C11.1051 21.4041 12.1453 21.4135 13.1949 21.4041C14.1227 21.3854 14.7037 20.7856 14.7224 19.8672C14.7318 19.3331 14.7037 18.8083 14.7318 18.2741C14.7412 17.9836 14.6662 17.9086 14.3663 17.9086C13.2418 17.9274 12.1172 17.918 10.9927 17.918C10.3179 17.918 10.0368 17.6181 10.0274 16.9434C10.0274 16.2593 10.018 15.5658 10.0368 14.8817C10.0461 14.5818 9.95243 14.3944 9.68067 14.2444C9.17461 13.9633 8.6873 13.6634 8.19999 13.3541C7.62834 12.998 7.62834 12.4545 8.19062 12.0984C8.67793 11.7891 9.17461 11.4892 9.67129 11.2081C9.93369 11.0582 10.0461 10.8801 10.0368 10.5709C10.018 9.88675 10.0274 9.19327 10.0274 8.50916C10.0274 7.81568 10.3273 7.5158 11.0301 7.50643C12.1266 7.50643 13.2137 7.48769 14.3101 7.5158C14.6756 7.52517 14.7412 7.40334 14.7318 7.07535C14.7131 6.11947 14.7224 5.17297 14.7224 4.21709C14.7224 3.17687 14.1414 2.60522 13.1012 2.59585C12.0048 2.58648 10.9177 2.60522 9.82123 2.58648C9.51198 2.58648 9.32455 2.67082 9.12776 2.93322C8.4249 3.90783 7.00983 3.88909 6.34447 2.9051C6.16641 2.6427 5.97899 2.5771 5.69784 2.5771C4.6014 2.58648 3.51432 2.5771 2.41788 2.58648C1.28394 2.58648 0.731035 3.14876 0.731035 4.28269C0.721664 6.85981 0.721664 9.41818 0.721664 11.9766ZM8.50925 12.7169C9.06216 13.0543 9.55884 13.3729 10.0743 13.6634C10.5335 13.9164 10.7396 14.2913 10.7303 14.8067C10.7209 15.4814 10.7396 16.1468 10.7209 16.8215C10.7115 17.1214 10.7959 17.2339 11.1145 17.2245C14.4038 17.2151 17.7025 17.2151 20.9919 17.2245C21.2636 17.2245 21.3761 17.1683 21.3761 16.8684C21.3667 14.1039 21.3667 11.3487 21.3761 8.58413C21.3761 8.33111 21.3292 8.22802 21.0481 8.22802C17.7213 8.23739 14.4038 8.23739 11.077 8.22802C10.7584 8.22802 10.7209 8.35922 10.7303 8.61225C10.7396 9.28698 10.7303 9.95235 10.7396 10.6271C10.749 11.1425 10.5428 11.5174 10.0836 11.7798C9.56821 12.0703 9.07153 12.3795 8.50925 12.7169Z" fill="white"/>
<path d="M7.71251 2.2116C7.45949 2.17412 7.36577 2.0148 7.37515 1.78052C7.38452 1.55561 7.49697 1.41504 7.71251 1.41504C7.99365 1.42441 8.078 1.61184 8.05925 1.86486C8.04988 2.09915 7.90931 2.19286 7.71251 2.2116Z" fill="white"/>
<path d="M6.25091 9.37133C6.24154 9.54939 6.16657 9.68059 5.99789 9.73681C5.84794 9.78367 5.71675 9.73681 5.62303 9.61499C5.58555 9.56813 5.53869 9.5119 5.53869 9.45567C5.44498 8.65911 4.91081 8.58414 4.27356 8.66848C4.17047 8.67785 4.04865 8.68722 3.94556 8.66848C3.31768 8.5654 2.86786 8.72471 2.7554 9.43693C2.71792 9.67121 2.53986 9.8399 2.27746 9.73681C2.02444 9.63373 2.01507 9.41819 2.10878 9.1839C2.6242 7.7782 3.149 6.38187 3.67379 4.99492C3.74876 4.78875 3.87059 4.62943 4.10488 4.62006C4.32979 4.60132 4.4891 4.73252 4.57344 4.93869C5.12635 6.3725 5.66052 7.81569 6.21343 9.2495C6.2228 9.28699 6.24154 9.33385 6.25091 9.37133ZM4.14236 5.77274C3.87059 6.49433 3.62694 7.11284 3.39265 7.73135C3.30831 7.93752 3.42077 7.96563 3.58945 7.96563C4.03928 7.95626 4.47973 7.96563 4.97641 7.96563C4.69527 7.23467 4.44224 6.55993 4.14236 5.77274Z" fill="white"/>
<path d="M5.51964 16.2124C6.46615 16.2124 7.42202 16.2124 8.36853 16.2124C8.6403 16.2124 8.89332 16.2311 8.89332 16.5779C8.89332 16.8965 8.6403 16.9246 8.39664 16.9246C6.4474 16.9246 4.49817 16.9246 2.5583 16.9246C2.31464 16.9246 2.06162 16.8965 2.05225 16.5779C2.05225 16.2311 2.30527 16.2124 2.57704 16.2124C3.56103 16.2218 4.54502 16.2124 5.51964 16.2124Z" fill="white"/>
<path d="M5.42609 19.2206C4.47958 19.2206 3.5237 19.2206 2.5772 19.2206C2.30543 19.2206 2.0524 19.1925 2.06178 18.8458C2.07115 18.5272 2.32417 18.5084 2.56783 18.5084C4.51707 18.5084 6.45693 18.5084 8.40617 18.5084C8.64983 18.5084 8.90285 18.5365 8.90285 18.8645C8.90285 19.2113 8.64046 19.23 8.36869 19.23C7.3847 19.2113 6.41008 19.2206 5.42609 19.2206Z" fill="white"/>
<path d="M4.45159 14.6287C3.81434 14.6287 3.17709 14.6287 2.53047 14.6287C2.26807 14.6287 2.04316 14.5818 2.05253 14.2632C2.0619 13.9633 2.28681 13.9446 2.5211 13.9446C3.7956 13.9446 5.07947 13.9446 6.35397 13.9446C6.58826 13.9446 6.81317 13.9633 6.83191 14.2632C6.84128 14.5818 6.62574 14.6381 6.36335 14.6381C5.72609 14.6287 5.08884 14.6287 4.45159 14.6287Z" fill="white"/>
<path d="M3.54263 11.6392C3.87999 11.6392 4.22673 11.6298 4.5641 11.6392C4.78901 11.6485 4.96707 11.7423 4.96707 11.9953C4.96707 12.2483 4.79838 12.3608 4.57347 12.3608C3.87062 12.3701 3.17714 12.3701 2.47429 12.3608C2.23064 12.3608 2.04321 12.2577 2.05258 11.9765C2.06195 11.7235 2.24001 11.6392 2.46492 11.6392C2.8304 11.6392 3.18651 11.6392 3.54263 11.6392Z" fill="white"/>
<path d="M16.7656 12.7357C16.7656 13.4104 16.7656 14.0758 16.7656 14.7505C16.7562 15.4909 16.297 15.7439 15.6504 15.369C15.463 15.2566 15.2662 15.1629 15.0881 15.0317C14.3759 14.4975 13.5981 14.2538 12.6984 14.3382C12.1643 14.3944 11.93 14.1226 11.9206 13.5791C11.9112 12.9887 11.9112 12.389 11.9206 11.7986C11.93 11.3112 12.183 11.002 12.6328 11.0676C13.7105 11.2269 14.5539 10.7583 15.3974 10.1961C15.7066 9.98989 16.0159 9.72749 16.4282 9.94303C16.8593 10.1773 16.7656 10.6084 16.7656 10.9833C16.775 11.583 16.7656 12.164 16.7656 12.7357ZM16.0252 10.6646C15.5192 10.9645 15.06 11.255 14.5821 11.5174C14.4134 11.6111 14.404 11.7517 14.404 11.911C14.404 12.4546 14.404 12.9981 14.404 13.551C14.404 13.6635 14.3572 13.804 14.4977 13.8884C14.985 14.1789 15.4723 14.4694 16.0159 14.788C16.0252 13.3823 16.0252 12.0703 16.0252 10.6646ZM12.6422 12.7076C12.6422 12.9419 12.6422 13.1761 12.6422 13.4104C12.6422 13.5323 12.6235 13.6447 12.8109 13.6822C13.495 13.8321 13.7012 13.6822 13.7012 13.0075C13.7012 12.7544 13.673 12.5108 13.7105 12.2671C13.7668 11.8735 13.6168 11.7986 13.2326 11.7798C12.7359 11.7611 12.5672 11.911 12.6516 12.389C12.6516 12.4827 12.6422 12.5951 12.6422 12.7076Z" fill="white"/>
<path d="M19.4926 12.7356C19.4551 11.9671 19.1365 11.3955 18.4992 11.0113C18.2556 10.8707 18.0025 10.7301 18.1993 10.4115C18.3774 10.121 18.6398 10.2709 18.8553 10.4021C19.7269 10.9269 20.1861 11.7047 20.1954 12.7168C20.1954 13.7289 19.7362 14.5068 18.8741 15.0316C18.6492 15.1721 18.3774 15.3408 18.1993 15.0034C18.0307 14.7036 18.2743 14.5724 18.4992 14.4318C19.1458 14.0476 19.4645 13.4572 19.4926 12.7356Z" fill="white"/>
<path d="M18.5928 12.7075C18.5834 13.1855 18.396 13.5697 18.0211 13.8415C17.8524 13.9633 17.6744 13.982 17.5244 13.8134C17.3745 13.6447 17.412 13.4854 17.5526 13.3167C18.0305 12.7544 18.0305 12.6701 17.5526 12.1078C17.412 11.9391 17.3651 11.7798 17.5244 11.6111C17.6838 11.4518 17.8524 11.4705 18.0305 11.6017C18.4054 11.8829 18.5834 12.2671 18.5928 12.7075Z" fill="white"/>
</g>
<defs>
<clipPath id="clip0_826_1144">
<rect width="22.107" height="24" fill="white"/>
</clipPath>
</defs>
</svg>
