<svg width="28" height="26" viewBox="0 0 28 26" fill="none" xmlns="http://www.w3.org/2000/svg">
<path fill-rule="evenodd" clip-rule="evenodd" d="M0.782193 0.792339C0.078582 1.50521 0.00472235 2.10504 0.00472235 7.09394C0.00472235 14.594 -0.479642 14.1832 8.36253 14.1832H15.1654V7.88164C15.1654 -0.458922 15.6113 0.00463916 7.58506 0.00463916C2.07785 0.00463916 1.4928 0.0723814 0.782193 0.792339ZM5.83575 7.09394C5.83575 11.0324 5.73857 11.8201 5.25265 11.8201C4.76673 11.8201 4.66954 11.0324 4.66954 7.09394C4.66954 3.15544 4.76673 2.36774 5.25265 2.36774C5.73857 2.36774 5.83575 3.15544 5.83575 7.09394ZM17.4978 3.54929V4.73084H21.5795H25.6612V14.1832V23.6356H18.664H11.6668V20.091V16.5463H10.5006H9.33437V20.4848C9.33437 26.2287 8.94485 25.9987 18.664 25.9987C25.9205 25.9987 26.4904 25.9464 27.2162 25.211C27.9536 24.4639 27.9937 23.8983 27.9937 14.1832C27.9937 1.50324 28.4345 2.36774 21.9683 2.36774H17.4978V3.54929ZM10.5006 7.09394C10.5006 9.98204 10.3925 10.6386 9.91747 10.6386C9.44244 10.6386 9.33437 9.98204 9.33437 7.09394C9.33437 4.20584 9.44244 3.54929 9.91747 3.54929C10.3925 3.54929 10.5006 4.20584 10.5006 7.09394ZM8.16816 7.09394C8.16816 8.93204 8.03871 9.45704 7.58506 9.45704C7.1314 9.45704 7.00196 8.93204 7.00196 7.09394C7.00196 5.25584 7.1314 4.73084 7.58506 4.73084C8.03871 4.73084 8.16816 5.25584 8.16816 7.09394ZM3.50334 7.09394C3.50334 7.88164 3.30897 8.27549 2.92024 8.27549C2.5315 8.27549 2.33713 7.88164 2.33713 7.09394C2.33713 6.30624 2.5315 5.91239 2.92024 5.91239C3.30897 5.91239 3.50334 6.30624 3.50334 7.09394ZM12.833 7.09394C12.833 7.88164 12.6386 8.27549 12.2499 8.27549C11.8611 8.27549 11.6668 7.88164 11.6668 7.09394C11.6668 6.30624 11.8611 5.91239 12.2499 5.91239C12.6386 5.91239 12.833 6.30624 12.833 7.09394ZM17.4978 9.45704V10.6732L20.3161 10.5575C23.0326 10.446 23.1345 10.4062 23.1345 9.45704C23.1345 8.50786 23.0326 8.46808 20.3161 8.35662L17.4978 8.24083V9.45704ZM17.4978 14.1832V15.3994L20.3161 15.2837C23.0326 15.1722 23.1345 15.1324 23.1345 14.1832C23.1345 13.2341 23.0326 13.1943 20.3161 13.0828L17.4978 12.967V14.1832ZM14.1446 18.3057C14.019 18.6377 14.019 19.1812 14.1446 19.5132C14.3351 20.0158 15.1079 20.0981 18.7538 20.0055L23.1345 19.8941V18.9094V17.9248L18.7538 17.8134C15.1079 17.7208 14.3351 17.8031 14.1446 18.3057Z" fill="white"/>
</svg>
