<svg width="29" height="23" viewBox="0 0 29 23" fill="none" xmlns="http://www.w3.org/2000/svg">
<g clip-path="url(#clip0_828_1185)">
<path d="M12.0527 0C14.9746 0 17.9148 0 20.855 0C22.7908 0 24.0508 1.26757 24.0691 3.19649C24.0691 5.32748 24.0691 7.47684 24.0691 9.60783C24.0691 9.75479 24.0508 9.92013 24.0143 10.0671C23.923 10.3794 23.6308 10.5815 23.2838 10.5631C22.9369 10.5447 22.7177 10.361 22.6081 10.0487C22.5534 9.88339 22.5534 9.71805 22.5534 9.55272C22.5534 7.4401 22.5534 5.32748 22.5534 3.21486C22.5534 2.09425 21.969 1.50639 20.8367 1.50639C14.9746 1.50639 9.09429 1.50639 3.2322 1.50639C2.13648 1.50639 1.53383 2.11262 1.53383 3.21486C1.53383 7.1278 1.53383 11.0224 1.53383 14.9353C1.53383 16.0008 2.04517 16.5887 3.10436 16.607C5.22275 16.6438 7.32288 16.6254 9.44127 16.6438C9.58736 16.6438 9.71519 16.6438 9.86129 16.6438C10.2448 16.6805 10.537 16.9928 10.537 17.3602C10.537 17.7276 10.2631 18.0767 9.87955 18.1134C9.75172 18.1318 9.62389 18.1318 9.49605 18.1318C7.32288 18.1318 5.1497 18.1318 2.97653 18.1318C2.62955 18.1318 2.30084 18.095 1.9356 17.9297C0.730308 17.3602 0.036353 16.4601 0.018091 15.1006C-0.00017096 11.0775 -0.00017096 7.05431 0.018091 3.03115C0.036353 1.26757 1.35121 0 3.10436 0C6.08106 0 9.07603 0 12.0527 0Z" fill="white"/>
<path d="M21.7862 17.4153C21.7862 18.591 21.8044 19.7484 21.7862 20.9241C21.7679 22.008 21.0192 22.7244 20.0148 22.6693C19.7408 22.6509 19.4852 22.5591 19.266 22.4121C18.3894 21.861 17.4763 21.3282 16.6363 20.722C16.2711 20.4648 15.9241 20.3913 15.5041 20.4097C14.9379 20.4281 14.3718 20.4281 13.8239 20.4097C12.8013 20.3913 12.0708 19.6565 12.0708 18.6461C12.0708 17.8011 12.0708 16.9744 12.0708 16.1294C12.0891 15.1374 12.8195 14.4025 13.8057 14.3842C14.5362 14.3842 15.2666 14.3842 15.9789 14.3842C16.0884 14.3842 16.1797 14.4025 16.2711 14.329C17.1842 13.6126 18.2068 13.0615 19.193 12.4369C20.38 11.6837 21.7314 12.3818 21.7862 13.7963C21.8044 14.9904 21.7679 16.2028 21.7862 17.4153C21.7679 17.4153 21.7679 17.4153 21.7862 17.4153ZM20.2887 17.5255C20.2887 16.3498 20.2887 15.1741 20.2887 13.98C20.2887 13.8698 20.3252 13.7596 20.2339 13.6861C20.1061 13.6126 20.0148 13.7044 19.9234 13.7779C19.1017 14.3107 18.2799 14.8434 17.4581 15.3578C17.2937 15.468 17.2389 15.5782 17.2389 15.762C17.2572 16.9744 17.2937 18.1685 17.2937 19.381C17.2937 19.5647 17.3668 19.6749 17.5129 19.7667C18.3164 20.2627 19.1199 20.7771 19.9234 21.2915C20.0148 21.3466 20.0878 21.4568 20.1974 21.3834C20.3069 21.3099 20.2704 21.1997 20.2704 21.0894C20.2887 19.8953 20.2887 18.7196 20.2887 17.5255ZM15.778 17.4153C15.778 16.9744 15.7597 16.5335 15.778 16.111C15.778 15.9089 15.7232 15.8538 15.5223 15.8538C14.9927 15.8722 14.4449 15.8722 13.897 15.8538C13.6048 15.8538 13.5135 15.9824 13.5135 16.258C13.5135 16.9928 13.5318 17.746 13.5135 18.4808C13.5135 18.7747 13.6413 18.885 13.9153 18.885C14.4631 18.885 14.9927 18.885 15.5406 18.885C15.7232 18.885 15.778 18.8298 15.778 18.6461C15.778 18.242 15.778 17.8378 15.778 17.4153Z" fill="white"/>
<path d="M12.0345 8.30347C13.9154 8.30347 15.7964 8.30347 17.6591 8.30347C18.2983 8.30347 18.7001 8.5974 18.7001 9.05666C18.7001 9.5343 18.2983 9.82823 17.6409 9.82823C13.8789 9.82823 10.0987 9.82823 6.33673 9.82823C6.15411 9.82823 5.98976 9.80986 5.80714 9.77312C5.47842 9.68126 5.25928 9.38733 5.25928 9.07503C5.25928 8.74436 5.47842 8.45043 5.8254 8.35858C5.98976 8.32184 6.15411 8.30347 6.31847 8.30347C8.23598 8.30347 10.1352 8.30347 12.0345 8.30347Z" fill="white"/>
<path d="M12.0344 5.29077C13.9154 5.29077 15.7964 5.29077 17.6591 5.29077C18.3166 5.29077 18.7001 5.56633 18.7001 6.0256C18.7001 6.50323 18.2983 6.79716 17.6409 6.79716C13.8606 6.79716 10.0804 6.79716 6.31845 6.79716C6.13583 6.79716 5.97147 6.79716 5.80711 6.74205C5.46013 6.61346 5.25925 6.30115 5.27751 5.98885C5.31404 5.65818 5.58797 5.36425 5.95321 5.30914C6.0993 5.29077 6.22714 5.29077 6.37323 5.29077C8.25421 5.29077 10.1535 5.29077 12.0344 5.29077Z" fill="white"/>
<path d="M28.9996 17.5072C28.9449 19.5647 28.2144 21.3099 26.7352 22.7061C26.3517 23.0735 25.9134 23.0919 25.5847 22.7428C25.2742 22.4121 25.329 21.9713 25.6942 21.6222C28.1048 19.234 28.1048 15.7987 25.7125 13.4289C25.329 13.0431 25.2925 12.6022 25.6029 12.2716C25.9134 11.9409 26.3699 11.9593 26.7534 12.3267C28.2144 13.7412 28.9449 15.4864 28.9996 17.5072Z" fill="white"/>
<path d="M10.5369 12.8411C9.09425 12.8411 7.65155 12.8411 6.20886 12.8411C6.00798 12.8411 5.80709 12.8595 5.62447 12.7309C5.35055 12.5472 5.20445 12.2716 5.2775 11.9409C5.35055 11.6103 5.56969 11.4082 5.8984 11.3531C5.98971 11.3347 6.08102 11.3347 6.17233 11.3347C9.07599 11.3347 11.9614 11.3347 14.865 11.3347C15.3216 11.3347 15.632 11.5184 15.7416 11.8491C15.906 12.3451 15.559 12.8227 14.9929 12.8411C13.9519 12.8595 12.911 12.8411 11.8701 12.8411C11.4318 12.8411 10.9935 12.8411 10.5369 12.8411Z" fill="white"/>
<path d="M26.1329 17.5256C26.1147 18.9953 25.5668 20.2445 24.4894 21.2181C24.0693 21.6039 23.631 21.6039 23.3206 21.2548C23.0284 20.9242 23.1014 20.4833 23.4849 20.1159C25.019 18.6646 25.0372 16.4417 23.5032 14.9905C23.2475 14.7517 23.0832 14.4761 23.1745 14.1271C23.2475 13.8515 23.4302 13.6678 23.7224 13.5943C24.0145 13.5208 24.2519 13.631 24.4528 13.8148C25.5668 14.7884 26.1147 16.0376 26.1329 17.5256Z" fill="white"/>
</g>
<defs>
<clipPath id="clip0_828_1185">
<rect width="29" height="23" fill="white"/>
</clipPath>
</defs>
</svg>
