<svg width="24" height="24" viewBox="0 0 24 24" fill="none" xmlns="http://www.w3.org/2000/svg">
<g clip-path="url(#clip0_833_1476)">
<path d="M3.10201 13.8133C2.71779 13.8133 2.38979 13.8321 2.07116 13.8133C0.852891 13.7477 0.00946991 12.8762 0.00946991 11.6579C9.85714e-05 8.49978 9.85714e-05 5.34164 0.00946991 2.19287C0.00946991 0.908996 0.899747 0.00934784 2.19299 0.00934784C5.34176 -2.34987e-05 8.4999 -2.34987e-05 11.658 0.00934784C12.8857 0.00934784 13.8041 0.852768 13.8135 2.07104C13.8416 5.30415 13.8416 8.53727 13.8135 11.7704C13.8041 12.9793 12.9232 13.7946 11.7049 13.8227C10.5335 13.8508 9.36207 13.8414 8.19065 13.8227C7.89077 13.8227 7.72208 13.8977 7.56277 14.1694C6.82243 15.4346 5.70724 16.2124 4.29217 16.5591C3.46749 16.7653 3.11138 16.4842 3.11138 15.6314C3.10201 15.0503 3.10201 14.4787 3.10201 13.8133ZM9.13715 5.91329C9.2871 5.91329 9.51201 5.92266 9.74629 5.91329C10.1399 5.88518 10.3835 5.66964 10.4117 5.26667C10.4398 4.8637 10.2149 4.61068 9.84 4.5357C9.64321 4.49822 9.43704 4.51696 9.23087 4.51696C8.6967 4.51696 8.15316 4.51696 7.62837 4.51696C7.57214 3.71103 7.37534 3.41114 6.93489 3.3924C6.47569 3.37366 6.25078 3.68291 6.16644 4.47948C6.09147 4.48885 5.99776 4.50759 5.90404 4.50759C5.34176 4.50759 4.77948 4.50759 4.2172 4.50759C3.71115 4.51696 3.39252 4.78873 3.38315 5.20107C3.37378 5.61341 3.70178 5.89455 4.19846 5.90392C4.32029 5.90392 4.46086 5.87581 4.57331 5.91329C4.6764 5.95078 4.83571 6.04449 4.84508 6.12883C4.95754 7.00974 5.27616 7.81567 5.85719 8.64035C5.22931 8.77155 4.68577 8.90275 4.12349 8.99646C3.65492 9.0808 3.35504 9.35257 3.37378 9.74617C3.39252 10.1585 3.72989 10.4209 4.22657 10.4022C5.18245 10.3647 6.06335 10.0648 6.88803 9.56811C7.01923 9.64308 7.1598 9.71805 7.291 9.78365C8.05008 10.1679 8.85601 10.4022 9.71818 10.4022C10.093 10.4022 10.3367 10.196 10.3929 9.82114C10.4491 9.45566 10.2898 9.17452 9.92435 9.06206C9.77441 9.0152 9.61509 9.02458 9.46515 8.98709C8.97784 8.87463 8.4999 8.75281 8.09694 8.64972C8.47179 7.71259 8.79041 6.8598 9.13715 5.91329Z" fill="white"/>
<path d="M15.2189 10.1117C16.1092 10.4584 16.3997 9.86801 16.7839 9.33385C17.5149 8.31237 18.5457 7.72198 19.7546 7.43147C20.5512 7.23467 20.8979 7.52518 20.8979 8.35923C20.8979 8.94962 20.8979 9.54002 20.8979 10.1773C21.254 10.1773 21.5633 10.1679 21.8725 10.1773C23.147 10.2241 23.9905 11.0957 23.9905 12.3702C23.9998 15.5096 23.9998 18.649 23.9905 21.7884C23.9905 23.1003 23.0908 23.9906 21.7788 23.9906C18.6394 24 15.5 24 12.3606 23.9906C11.1049 23.9906 10.1959 23.1472 10.1771 21.9102C10.149 19.7735 10.1677 17.6369 10.1677 15.4908C10.1677 15.4158 10.1959 15.3409 10.224 15.219C11.6484 15.2378 13.0729 15.3315 14.2068 14.1882C15.3313 13.0636 15.247 11.6486 15.2189 10.1117ZM20.673 19.9984C20.5699 19.7267 20.5137 19.5486 20.4294 19.3893C19.5578 17.6462 18.6863 15.9032 17.8241 14.1601C17.6648 13.8321 17.4868 13.5603 17.065 13.5697C16.6715 13.5791 16.5028 13.8415 16.3528 14.1507C15.7249 15.4065 15.0971 16.6622 14.4692 17.918C14.188 18.4709 13.8975 19.0238 13.6445 19.5955C13.4665 19.9891 13.6164 20.3733 13.9819 20.542C14.3286 20.7013 14.6754 20.5795 14.8909 20.214C15.0127 19.9984 15.1346 19.7735 15.2283 19.5486C15.3313 19.2675 15.5094 19.1925 15.7999 19.2019C16.484 19.2206 17.1775 19.2581 17.8616 19.1925C18.5457 19.1269 18.9955 19.305 19.183 19.9984C19.2205 20.1296 19.2954 20.2983 19.3985 20.3452C19.6328 20.4483 19.9327 20.5888 20.1482 20.5232C20.3544 20.467 20.5043 20.1765 20.673 19.9984Z" fill="white"/>
<path d="M5.96034 22.6037C5.4824 22.5006 5.00446 22.435 4.54527 22.3038C1.94003 21.5447 0.0563947 19.1082 0.00953796 16.4561C0.000166617 15.8751 0.243821 15.5471 0.693646 15.5377C1.14347 15.5283 1.3965 15.8282 1.41524 16.428C1.50895 18.902 3.56128 21.0387 5.93222 21.1136C5.89474 21.048 5.876 21.0012 5.84788 20.9543C5.57611 20.542 5.59486 20.1671 5.91348 19.9141C6.20399 19.6798 6.59759 19.7173 6.92559 20.0359C7.3473 20.4483 7.76901 20.87 8.18135 21.2917C8.57494 21.704 8.56557 22.0508 8.15323 22.4725C7.75964 22.8754 7.36604 23.269 6.96307 23.6626C6.57885 24.0469 6.21337 24.0844 5.89474 23.8032C5.57611 23.5314 5.58548 23.1753 5.90411 22.7255C5.92285 22.6974 5.9416 22.6505 5.96034 22.6037Z" fill="white"/>
<path d="M18.04 2.83947C18.3961 3.47672 18.3961 3.84221 18.04 4.09523C17.6839 4.34826 17.3559 4.25455 16.8405 3.73912C16.4844 3.38301 16.1283 3.03627 15.7815 2.68016C15.4348 2.31468 15.4348 1.93982 15.7815 1.57434C16.1939 1.14326 16.6156 0.730922 17.0373 0.318583C17.3934 -0.0375283 17.7683 -0.0750137 18.0775 0.187384C18.3961 0.449781 18.3961 0.834006 18.0869 1.26509C18.0588 1.30257 18.04 1.34006 18.0119 1.39629C18.5086 1.49937 18.9959 1.57434 19.4645 1.71491C22.0416 2.48336 23.8877 4.88242 23.9721 7.53451C23.9815 7.94685 23.9065 8.29359 23.4754 8.44353C22.9975 8.61222 22.5851 8.26548 22.5664 7.69383C22.5195 6.63486 22.2103 5.66962 21.573 4.8262C20.6921 3.63604 19.5113 2.98941 18.04 2.83947Z" fill="white"/>
<path d="M6.1665 5.93201C6.71941 5.93201 7.12238 5.93201 7.64717 5.93201C7.42226 6.53177 7.22547 7.08468 7.0193 7.62822C6.94432 7.62822 6.87873 7.62822 6.80375 7.62822C6.60696 7.10342 6.40079 6.55989 6.1665 5.93201Z" fill="white"/>
<path d="M16.1187 17.768C16.4466 17.112 16.7465 16.5123 17.0839 15.8375C17.4213 16.5123 17.7212 17.112 18.0491 17.768C17.3838 17.768 16.784 17.768 16.1187 17.768Z" fill="white"/>
</g>
<defs>
<clipPath id="clip0_833_1476">
<rect width="24" height="24" fill="white"/>
</clipPath>
</defs>
</svg>
