<svg width="24" height="24" viewBox="0 0 24 24" fill="none" xmlns="http://www.w3.org/2000/svg">
<g clip-path="url(#clip0_838_629)">
<path d="M0 12.376V11.4951C0 11.0009 0.0849557 10.5282 0.19115 10.0555C0.19115 10.034 0.212389 9.99107 0.212389 9.92661C0.637168 7.56314 1.61416 5.4575 3.2708 3.73861C5.45841 1.46108 7.9646 0.236371 11.2779 0.0215099C12.1487 -0.0429485 12.7009 2.3759e-05 13.7628 0.0644821C14.0602 0.0859683 14.5487 0.171913 14.846 0.236371C19.5823 1.59 22.5345 4.66251 23.7027 9.4754C23.7239 9.53986 23.7239 9.53986 23.7239 9.58283C23.8301 9.7977 23.8938 10.0126 23.9363 10.2489C23.9363 10.2919 23.9575 10.3778 23.9788 10.5497C24 10.7001 24 10.8505 24 10.9794C24 11.1513 24 11.0654 24 11.3017C24 11.9033 24 11.8604 24 12.4835C24 12.7413 24 12.5264 24 12.8058C24 12.8917 24 12.9347 24 13.0206C23.9788 13.3429 24 13.3214 24 13.4503C24 13.8371 23.8726 13.9875 23.8088 14.2453C23.7664 14.3957 23.7239 14.5891 23.6814 14.7395C22.2796 19.7028 19.0938 22.7753 14.1027 23.8281C13.8478 23.8496 14.1027 23.8281 13.2956 23.9571H13.1257C12.4248 23.9571 11.2566 23.8926 10.5558 23.8067C10.2372 23.7637 10.2796 23.7637 10.131 23.7422C9.9823 23.7207 9.96106 23.7207 9.83363 23.6992C9.76991 23.6992 9.70619 23.6562 9.64248 23.6562C8.21947 23.3769 6.90266 22.8398 5.6708 22.0448C5.45841 21.9159 5.26726 21.9588 5.07611 22.0233C3.84425 22.453 2.59115 22.8613 1.35929 23.2695C1.1469 23.334 0.913274 23.4629 0.700885 23.2695C0.467257 23.0546 0.615929 22.7968 0.679646 22.5605C1.08319 21.4002 1.48673 20.154 1.9115 18.9293C1.99646 18.693 2.0177 18.4996 1.86903 18.2847C1.04071 16.9741 0.530973 15.5345 0.233628 14.009C0.0849558 13.4718 0 12.9132 0 12.376ZM1.5292 22.453C2.76106 22.0448 3.88673 21.6795 4.99115 21.2928C5.35221 21.1639 5.64956 21.1853 5.96814 21.4002C8.24071 22.8613 10.7469 23.4199 13.423 23.0761C19.5611 22.3241 23.8513 16.6518 23.0655 10.3134C22.3434 4.38319 16.6513 2.37525e-05 10.7044 0.752038C2.56991 1.76189 -1.76283 10.7001 2.44248 17.7476C2.76106 18.2847 2.80354 18.7144 2.59115 19.2731C2.20885 20.2829 1.9115 21.3143 1.5292 22.453Z" fill="white"/>
<path d="M3.82311 11.5381C4.39656 11.5381 4.94877 11.5166 5.52223 11.5381C5.79833 11.5381 5.88329 11.4521 5.88329 11.1728C5.92577 9.58282 6.13815 8.03581 6.52046 6.5103C6.60541 6.16652 6.52046 6.10206 6.20187 6.12355C5.54346 6.14503 4.88506 6.12355 4.24789 6.12355C3.97178 6.12355 3.71692 6.10206 3.69568 5.75828C3.67444 5.39302 3.97178 5.35005 4.24789 5.35005C4.94877 5.35005 5.6709 5.32856 6.37178 5.35005C6.73284 5.37153 6.90276 5.2641 7.03019 4.89884C7.32753 3.99642 7.73107 3.13698 8.28329 2.36348C8.43196 2.14862 8.60187 1.8693 8.92046 2.06267C9.28152 2.27753 9.06913 2.55685 8.92046 2.7932C8.47444 3.45927 8.13461 4.1898 7.83727 4.94181C7.70984 5.24262 7.77355 5.35005 8.11338 5.35005C9.17532 5.32856 10.2373 5.32856 11.2992 5.35005C11.5753 5.35005 11.6603 5.2641 11.6603 4.98478C11.639 4.01791 11.6603 3.05103 11.6603 2.08416C11.6603 1.78335 11.639 1.46106 12.0426 1.46106C12.4461 1.46106 12.4249 1.80484 12.4249 2.10564C12.4249 3.02955 12.4461 3.97494 12.4249 4.89884C12.4249 5.22113 12.4674 5.37153 12.8497 5.37153C13.8691 5.35005 14.9098 5.35005 15.9293 5.37153C16.3753 5.39302 16.3541 5.22113 16.2054 4.89884C15.9081 4.14682 15.5682 3.4163 15.101 2.75023C14.9523 2.53537 14.8249 2.29902 15.101 2.08416C15.3983 1.8693 15.5895 2.08416 15.7382 2.3205C16.2904 3.11549 16.6939 3.99642 17.0125 4.92033C17.1187 5.24262 17.2674 5.37153 17.6284 5.35005C18.3081 5.32856 19.0089 5.35005 19.6886 5.35005C19.9647 5.35005 20.3258 5.32856 20.3258 5.71531C20.347 6.12355 20.0072 6.10206 19.7098 6.10206C19.1151 6.10206 18.4992 6.12355 17.9045 6.10206C17.4373 6.08058 17.416 6.25247 17.5222 6.61773C17.9045 8.07879 18.0744 9.56133 18.1382 11.0868C18.1594 11.4306 18.2443 11.5381 18.5842 11.5381C19.6674 11.5166 20.7505 11.5381 21.8125 11.5381C22.1098 11.5381 22.4284 11.5381 22.4072 11.9463C22.3859 12.3116 22.0886 12.3116 21.8125 12.3116C20.7081 12.3116 19.6249 12.3116 18.5205 12.3116C18.2231 12.3116 18.1382 12.3975 18.1169 12.6983C18.0744 14.2453 17.8833 15.7708 17.501 17.2534C17.3948 17.6616 17.501 17.7475 17.8833 17.7261C18.5205 17.7046 19.1576 17.7261 19.7948 17.7261C20.0709 17.7261 20.3258 17.769 20.3258 18.1128C20.3258 18.4351 20.0709 18.4996 19.7948 18.4996C19.0727 18.4996 18.3505 18.521 17.6284 18.4996C17.2886 18.4781 17.1187 18.5855 17.0125 18.9293C16.7151 19.8317 16.3116 20.6911 15.7806 21.4861C15.632 21.7225 15.462 22.0233 15.1222 21.7869C14.7824 21.5506 14.9948 21.2928 15.1647 21.0564C15.5895 20.3903 15.9293 19.6813 16.2266 18.9508C16.3541 18.65 16.3541 18.4996 15.9505 18.521C14.9098 18.5425 13.8691 18.5425 12.8284 18.521C12.4674 18.521 12.4249 18.65 12.4249 18.9508C12.4461 19.8532 12.4461 20.7771 12.4249 21.6795C12.4249 21.9803 12.5098 22.41 12.0426 22.41C11.5541 22.3885 11.6815 21.9588 11.6815 21.658C11.6603 20.7556 11.6603 19.8747 11.6815 18.9723C11.6815 18.65 11.639 18.4996 11.2567 18.4996C10.2373 18.521 9.19656 18.521 8.17709 18.4996C7.75231 18.4781 7.75231 18.6285 7.87975 18.9723C8.17709 19.7243 8.51692 20.4548 8.98417 21.1209C9.15408 21.3572 9.26028 21.615 8.96293 21.8084C8.68683 21.9803 8.49568 21.7654 8.36824 21.5506C7.81603 20.7556 7.41249 19.8747 7.09391 18.9508C6.96647 18.5855 6.79656 18.4781 6.4355 18.4996C5.73461 18.521 5.01249 18.4996 4.31161 18.4996C4.0355 18.4996 3.73815 18.4566 3.75939 18.0913C3.75939 17.769 4.0355 17.7261 4.31161 17.7261C4.94877 17.7261 5.58594 17.7046 6.22311 17.7261C6.56293 17.7261 6.69037 17.6831 6.58417 17.2748C6.18063 15.7708 5.98948 14.2238 5.947 12.6553C5.947 12.333 5.79833 12.2901 5.52223 12.2901C4.43904 12.3116 3.35585 12.2901 2.29391 12.2901C1.99656 12.2901 1.65674 12.3116 1.65674 11.9033C1.65674 11.4951 1.99656 11.5166 2.27267 11.5166C2.76116 11.5381 3.29214 11.5381 3.82311 11.5381ZM11.6178 15.0403C11.6178 14.2883 11.5966 13.5363 11.6178 12.7842C11.639 12.419 11.5541 12.2901 11.1505 12.2901C9.79125 12.3116 8.43196 12.3116 7.07267 12.2901C6.73284 12.2901 6.62665 12.376 6.62665 12.7413C6.69037 14.3098 6.90276 15.8353 7.28506 17.3393C7.34877 17.5971 7.45497 17.7261 7.75231 17.7261C8.89922 17.7046 10.0461 17.7046 11.193 17.7261C11.5541 17.7261 11.5966 17.5757 11.5966 17.2748C11.6178 16.5443 11.6178 15.7923 11.6178 15.0403ZM11.6178 8.8308C11.6178 8.0573 11.6178 7.2838 11.6178 6.53178C11.6178 6.25246 11.5541 6.12355 11.2355 6.12355C10.0674 6.14503 8.89922 6.14503 7.73107 6.12355C7.49745 6.12355 7.37001 6.18801 7.3063 6.42435C6.90276 7.99284 6.66913 9.56133 6.62665 11.1943C6.62665 11.4736 6.71161 11.5595 6.98771 11.5595C8.41072 11.5381 9.81249 11.5381 11.2355 11.5595C11.5541 11.5595 11.6178 11.4306 11.6178 11.1513C11.6178 10.3563 11.6178 9.58281 11.6178 8.8308ZM12.3824 8.8308C12.3824 9.6043 12.3824 10.3778 12.3824 11.1298C12.3824 11.4306 12.4461 11.5381 12.7647 11.5381C14.1877 11.5166 15.5895 11.5166 17.0125 11.5381C17.3098 11.5381 17.3736 11.4306 17.3736 11.1728C17.3311 9.58282 17.0974 8.01433 16.7151 6.46733C16.6514 6.23098 16.5452 6.12355 16.2691 6.12355C15.101 6.14503 13.9328 6.14503 12.7647 6.12355C12.4249 6.12355 12.4036 6.27395 12.4036 6.55327C12.3824 7.30529 12.3824 8.0573 12.3824 8.8308ZM12.3824 14.9758C12.3824 15.7708 12.3824 16.5443 12.3824 17.3393C12.3824 17.6401 12.4674 17.7475 12.7647 17.7475C13.9116 17.7261 15.0585 17.7261 16.2054 17.7475C16.4603 17.7475 16.5877 17.6831 16.6727 17.4252C17.0762 15.8568 17.3098 14.2883 17.3523 12.6553C17.3523 12.419 17.2886 12.3116 17.0337 12.3116C15.6107 12.333 14.1665 12.333 12.7435 12.3116C12.4674 12.3116 12.3824 12.419 12.3824 12.6768C12.3824 13.4288 12.3824 14.2023 12.3824 14.9758Z" fill="white"/>
</g>
<defs>
<clipPath id="clip0_838_629">
<rect width="24" height="24" fill="white"/>
</clipPath>
</defs>
</svg>
