<svg width="28" height="28" viewBox="0 0 28 28" fill="none" xmlns="http://www.w3.org/2000/svg">
<g clip-path="url(#clip0_833_1483)">
<path d="M22.1704 27.9891C20.7376 27.9235 18.9657 28.0984 17.2048 27.8907C12.4907 27.3115 8.77194 22.776 9.14382 18.0547C9.50476 13.4754 12.5454 10.0875 17.0844 9.24593C22.1048 8.31697 27.2891 12.1421 27.9126 17.2131C28.2516 19.9782 27.5735 22.4372 25.8126 24.5902C25.5719 24.8853 25.6704 24.9836 25.9001 25.1585C26.4688 25.5738 27.0266 26.0219 27.5954 26.4481C27.9344 26.6995 28.1094 27.0164 27.9563 27.4426C27.8032 27.8579 27.4751 28 27.0485 28C25.5282 27.9782 24.0188 27.9891 22.1704 27.9891ZM16.3626 16.0765C16.0344 16.0765 15.7063 16.0656 15.3782 16.0765C14.8313 16.0875 14.4704 16.4153 14.4594 16.8743C14.4485 17.3552 14.8204 17.694 15.4001 17.7159C15.4876 17.7159 15.586 17.7268 15.6735 17.7159C15.9798 17.6722 16.1329 17.7596 16.1657 18.0984C16.2532 18.929 16.5594 19.6831 17.0516 20.3498C17.2813 20.6558 17.1501 20.7323 16.8766 20.8197C16.3626 20.9836 15.8376 20.9836 15.3126 21.0055C14.8094 21.0273 14.4594 21.388 14.4704 21.8361C14.4704 22.2842 14.8313 22.623 15.3235 22.6448C16.3626 22.6885 17.3579 22.5246 18.2657 21.9891C18.4844 21.8689 18.6376 21.8579 18.8563 21.9891C19.7094 22.4918 20.6501 22.6776 21.6344 22.6558C22.2798 22.6339 22.6516 22.3607 22.6516 21.8579C22.6626 21.3334 22.2907 21.0164 21.6016 21.0164C21.1204 21.0164 20.661 20.9727 20.2016 20.8197C19.9063 20.7213 19.8735 20.6339 20.0594 20.3825C20.486 19.8033 20.8032 19.1585 20.8907 18.4481C20.9563 17.8907 21.1423 17.6503 21.7548 17.7159C22.3016 17.7705 22.6516 17.4099 22.6626 16.929C22.6735 16.4263 22.3126 16.1093 21.7219 16.0984C21.2079 16.0875 20.7048 16.0984 20.1907 16.0984C19.4251 16.0984 19.4251 16.0984 19.3704 15.3224C19.3376 14.8416 19.0423 14.5028 18.6048 14.4809C18.1891 14.4481 17.8173 14.776 17.7298 15.2241C17.6751 15.5082 17.8938 15.9126 17.5985 16.0656C17.3579 16.1967 16.9969 16.0984 16.6798 16.0984C16.5813 16.0765 16.4719 16.0765 16.3626 16.0765Z" fill="white"/>
<path d="M10.0079 11.5082C9.22038 12.5465 8.59695 13.5629 8.19226 14.6885C7.84226 15.6284 7.60163 16.6011 7.54695 17.6066C7.52507 17.9345 7.45945 18.0765 7.07663 18.0765C5.03132 18.0547 2.99695 18.0656 0.951635 18.0656C0.525073 18.0656 0.196948 17.9235 0.0547602 17.5082C-0.0983648 17.082 0.0985102 16.776 0.426635 16.5246C0.951635 16.1312 1.45476 15.7159 1.9907 15.3334C2.26414 15.1476 2.28601 15.0273 2.06726 14.7651C0.612573 12.9946 -0.0546148 10.9399 0.0110102 8.65576C0.14226 4.18582 3.76257 0.426254 8.33445 0.0328118C12.7751 -0.349702 17.0079 2.79784 17.8938 7.13664C17.9704 7.48636 17.8501 7.53008 17.5657 7.55194C15.6407 7.70494 13.8798 8.36068 12.2938 9.45358C11.9985 9.66123 11.9001 9.61751 11.7469 9.32243C11.1344 8.08746 10.5001 6.86341 9.88757 5.62844C9.70163 5.25686 9.48288 4.96177 9.04538 4.96177C8.60788 4.96177 8.3782 5.25686 8.2032 5.62844C7.19695 7.68308 6.17976 9.7268 5.16257 11.7814C4.86726 12.3825 4.98757 12.8743 5.46882 13.082C5.9282 13.2896 6.42038 13.1148 6.6282 12.5028C6.91257 11.6722 7.4157 11.4099 8.24695 11.5191C8.78288 11.5738 9.32976 11.5082 10.0079 11.5082Z" fill="white"/>
<path d="M9.04561 7.60657C9.43936 8.38252 9.80029 9.09291 10.1831 9.85793C9.41748 9.85793 8.72842 9.85793 7.94092 9.85793C8.31279 9.10383 8.66279 8.39345 9.04561 7.60657Z" fill="white"/>
<path d="M17.7627 17.7158C18.2111 17.7158 18.6486 17.7267 19.0752 17.7158C19.283 17.7158 19.3814 17.7486 19.3268 17.989C19.2064 18.5027 19.0205 18.9945 18.7252 19.4317C18.583 19.6393 18.4955 19.5956 18.3752 19.4207C18.0471 18.918 17.8174 18.3716 17.7627 17.7158Z" fill="white"/>
</g>
<defs>
<clipPath id="clip0_833_1483">
<rect width="28" height="28" fill="white"/>
</clipPath>
</defs>
</svg>
