<svg width="24" height="24" viewBox="0 0 24 24" fill="none" xmlns="http://www.w3.org/2000/svg">
<g clip-path="url(#clip0_833_1469)">
<path d="M0 9.90937C0 7.39687 0 4.88437 0 2.37187C0 0.84375 0.853125 0 2.38125 0C4.6125 0 6.84375 0 9.075 0C10.4906 0 11.2781 0.65625 11.4562 2.04375C11.9344 5.75625 12.3844 9.47812 12.8438 13.1906C13.0781 15.0656 13.3031 16.9406 13.5469 18.8063C13.6313 19.4625 13.3687 19.7812 12.7219 19.7812C9.29062 19.7812 5.85 19.7812 2.41875 19.7812C0.834375 19.7812 0 18.9562 0 17.3625C0 14.8781 0 12.3937 0 9.90937ZM5.3625 10.6406C5.9625 10.6406 6.51563 10.6219 7.05938 10.6594C7.18125 10.6687 7.36875 10.8375 7.39688 10.9688C7.54688 11.5875 7.65 12.225 7.79062 12.8438C7.89375 13.2937 8.24063 13.5187 8.65313 13.425C9.02813 13.3406 9.25313 12.9844 9.16875 12.5625C8.70938 10.2656 8.24063 7.96875 7.78125 5.68125C7.69688 5.25 7.43437 5.03437 7.00312 5.025C6.62812 5.01562 6.25313 5.01562 5.87813 5.025C5.19375 5.03437 5.01562 5.19375 4.875 5.87813C4.64062 7.06875 4.39688 8.25938 4.1625 9.45C3.95625 10.5 3.73125 11.5594 3.55313 12.6188C3.47813 13.05 3.70313 13.35 4.06875 13.4344C4.47188 13.5188 4.78125 13.3219 4.90312 12.8812C4.93125 12.7781 4.95 12.6656 4.96875 12.5625C5.1 11.9344 5.23125 11.3062 5.3625 10.6406Z" fill="white"/>
<path d="M13.1625 4.26562C13.3781 4.26562 13.5375 4.26562 13.6875 4.26562C16.2937 4.26562 18.9 4.26562 21.5156 4.26562C23.1656 4.26562 24 5.1 24 6.74063C24 11.6906 24 16.6406 24 21.5906C24 23.1562 23.1656 24 21.6094 24C18.375 24 15.1406 24 11.9062 24C11.7656 24 11.6344 24 11.3906 24C11.5594 23.7938 11.6719 23.6625 11.7844 23.5219C12.6375 22.5469 13.4906 21.5625 14.3438 20.5969C14.8594 20.0062 15.0375 19.3406 14.9344 18.5625C14.3719 14.1656 13.8375 9.76875 13.2938 5.3625C13.2563 5.03438 13.2187 4.69687 13.1625 4.26562ZM20.1188 15.2344C20.6438 14.1938 21.1406 13.2094 21.6469 12.2344C21.7031 12.1312 21.8813 12.0563 22.0125 12.0281C22.3781 11.9344 22.5937 11.7 22.5844 11.325C22.575 10.9313 22.3406 10.6969 21.9375 10.65C21.7219 10.6312 21.4969 10.6406 21.2812 10.6406C20.775 10.6406 20.2687 10.6406 19.7719 10.6406C19.6594 9.50625 19.5281 9.23437 19.0594 9.25312C18.1313 9.29062 18.4031 10.0594 18.2906 10.6406C18.0844 10.6406 17.8781 10.6406 17.6813 10.6406C17.1656 10.65 16.65 10.6312 16.1344 10.6594C15.7969 10.6781 15.5906 10.8937 15.5438 11.2219C15.4875 11.55 15.6094 11.9063 15.9188 11.9344C16.4625 11.9906 16.5094 12.3844 16.6688 12.7406C16.8844 13.2094 17.1094 13.6688 17.3625 14.1188C17.5594 14.4656 17.8031 14.7844 18.0375 15.1406C17.5219 15.5625 17.0156 15.9656 16.5281 16.3781C16.1063 16.7344 16.1156 17.2594 16.5281 17.5312C16.8469 17.7375 17.1562 17.6719 17.4375 17.4469C17.9719 17.0156 18.4969 16.5844 19.0312 16.1625C19.575 16.5937 20.0813 16.9969 20.6063 17.4C21.0563 17.7469 21.4969 17.7281 21.7594 17.3719C22.0031 17.025 21.9 16.6313 21.4688 16.2938C20.9812 15.9188 20.5125 15.5437 20.1188 15.2344Z" fill="white"/>
<path d="M9.5625 23.7843C8.46563 23.2312 8.27813 22.2843 8.25 21.2156C9.44062 21.2156 10.6125 21.2156 11.8875 21.2156C11.0906 22.0875 10.3406 22.9218 9.5625 23.7843Z" fill="white"/>
<path d="M7.05957 9.20629C6.58145 9.20629 6.1502 9.20629 5.65332 9.20629C5.83145 8.30629 6.00957 7.43441 6.1877 6.57191C6.19707 6.51566 6.3002 6.43129 6.3377 6.44066C6.4127 6.45941 6.5252 6.52504 6.53457 6.59066C6.7127 7.44379 6.88145 8.30629 7.05957 9.20629Z" fill="white"/>
<path d="M17.8218 12.075C18.6937 12.075 19.4249 12.075 20.2874 12.075C19.8655 12.7875 19.4905 13.4156 19.1249 14.0437C19.0687 14.0437 19.0124 14.0531 18.9562 14.0531C18.5905 13.425 18.2343 12.7968 17.8218 12.075Z" fill="white"/>
</g>
<defs>
<clipPath id="clip0_833_1469">
<rect width="24" height="24" fill="white"/>
</clipPath>
</defs>
</svg>
