<svg width="22" height="21" viewBox="0 0 22 21" fill="none" xmlns="http://www.w3.org/2000/svg">
<g clip-path="url(#clip0_839_634)">
<path d="M0 20.9029C0 18.3369 0 15.7847 0 13.2186C0 9.64003 0 6.06143 0 2.48283C0 0.873844 0.865709 0 2.45971 0C4.03997 0 5.62024 0 7.2005 0C7.48907 0 7.70893 0 7.80512 0.360634C9.04185 5.03501 10.2786 9.70938 11.5428 14.4254C10.045 14.4254 8.57464 14.4392 7.11805 14.4115C6.74703 14.4115 6.48595 14.5225 6.22486 14.786C4.35603 16.6863 2.47345 18.5727 0.604622 20.4729C0.453467 20.6255 0.316052 20.8197 0.164897 20.9861C0.109931 20.9723 0.0549656 20.9306 0 20.9029ZM8.23111 10.7774C7.54403 8.53038 6.85696 6.33884 6.21112 4.13342C6.10119 3.74505 5.96377 3.56473 5.52405 3.5786C5.1118 3.59247 4.82324 3.64795 4.76827 4.13342C4.74079 4.35535 4.63086 4.56341 4.56215 4.78534C3.97127 6.79657 3.36665 8.78005 2.74828 10.8606C3.22923 10.6942 3.77889 11.1519 3.99875 10.389C4.35603 9.15456 4.38351 9.15456 5.6752 9.15456C5.74391 9.15456 5.81262 9.16843 5.88132 9.15456C6.51343 9.01585 6.74703 9.321 6.89819 9.91744C7.11805 10.8745 7.15928 10.8606 8.23111 10.7774Z" fill="white"/>
<path d="M8.79443 0C9.92123 0 10.9931 0 12.0649 0C14.6071 0 17.1492 0 19.6914 0C21.0243 0 21.9724 0.915456 21.9862 2.23316C21.9999 5.56209 21.9999 8.89102 21.9862 12.2199C21.9862 13.4683 21.038 14.4115 19.8013 14.4254C17.5615 14.4392 15.3216 14.4254 13.068 14.4392C12.7657 14.4392 12.6145 14.3699 12.5321 14.0647C11.2954 9.39036 10.0586 4.71598 8.79443 0ZM17.479 9.50132C18.5508 8.53038 19.1142 7.44848 19.2379 6.15852C19.3616 4.71598 19.3478 4.70211 17.9325 4.71598C17.3691 4.72985 16.8606 4.77147 17.0393 3.92536C17.1355 3.49538 16.7645 3.56473 16.5583 3.60634C16.3385 3.63408 15.885 3.38441 15.9674 3.88375C16.0911 4.71598 15.6651 4.78534 15.0468 4.70211C14.8269 4.67437 14.5933 4.71598 14.3597 4.68824C13.9062 4.63276 13.7276 4.7576 13.7413 5.27081C13.7413 5.75627 13.92 5.82563 14.3322 5.81176C15.1567 5.78402 15.9812 5.79789 16.8057 5.79789C18.3447 5.79789 18.4821 6.04756 17.7264 7.46235C17.6851 7.54557 17.6439 7.6288 17.5889 7.69815C17.2179 8.18362 16.8744 8.91876 16.256 8.82166C15.5964 8.7107 15.088 8.05878 14.9506 7.35139C14.8132 6.61625 14.291 6.86592 13.9612 6.93527C13.5077 7.03236 13.8375 7.40687 13.8788 7.65654C14.0162 8.40555 14.5796 8.90489 15.0468 9.50132C14.7445 9.5568 14.5246 9.66777 14.3047 9.64003C13.5352 9.57067 13.7413 10.1255 13.7688 10.5C13.7963 11.041 14.2498 10.8052 14.4284 10.7358C15.7613 10.2365 17.0805 10.3197 18.3997 10.7497C18.4684 10.7774 18.5371 10.7497 18.6058 10.7774C19.1555 10.9022 19.3066 10.6664 19.2791 10.1255C19.2516 9.76486 19.1692 9.6539 18.8257 9.6539C18.4134 9.68164 18.0287 9.58454 17.479 9.50132Z" fill="white"/>
<path d="M5.56535 5.64526C5.79895 6.42201 6.03255 7.19876 6.2799 8.031C5.73024 8.031 5.26304 8.031 4.71338 8.031C4.94698 7.22651 5.18059 6.43588 5.41419 5.65913C5.46916 5.64526 5.52412 5.64526 5.56535 5.64526Z" fill="white"/>
</g>
<defs>
<clipPath id="clip0_839_634">
<rect width="22" height="21" fill="white"/>
</clipPath>
</defs>
</svg>
