<svg width="29" height="27" viewBox="0 0 29 27" fill="none" xmlns="http://www.w3.org/2000/svg">
<g clip-path="url(#clip0_837_604)">
<path d="M11.9127 26.9823C10.7448 26.9823 9.57686 27 8.40895 26.9823C3.39594 26.8762 -0.449165 22.6326 0.0359656 17.7701C0.557031 12.8192 5.21069 9.40663 10.2057 10.3084C10.8705 10.4322 11.158 10.662 11.1221 11.387C11.0502 12.8192 11.0862 14.2691 11.1041 15.719C11.1221 16.939 11.751 17.5579 12.9907 17.5756C14.1227 17.5933 15.2726 17.611 16.4046 17.5756C16.9077 17.5579 17.1054 17.6994 17.1054 18.2121C17.0874 20.8113 17.1054 23.3929 17.1054 25.9921C17.1054 26.6994 16.728 27 16.0273 27C14.6617 26.9823 13.2962 26.9823 11.9127 26.9823ZM11.9666 23.0569C12.4337 23.0392 12.6853 23.0746 12.4697 22.5088C11.4814 19.9273 10.5112 17.328 9.55889 14.7288C9.43312 14.3752 9.19954 14.3045 8.87611 14.3222C8.5527 14.3222 8.31911 14.3575 8.19334 14.7112C7.22308 17.328 6.23485 19.9449 5.24662 22.5795C5.17475 22.7563 5.04898 23.0216 5.39036 23.0569C5.87549 23.0923 6.36062 23.2337 6.61217 22.5265C7.07934 21.1473 7.13324 21.165 8.64253 21.165C8.85815 21.165 9.03782 21.165 9.27141 21.165C10.3495 21.165 10.9604 21.3418 11.1401 22.4381C11.194 22.8801 11.2479 23.0923 11.9666 23.0569Z" fill="white"/>
<path d="M16.9797 16.8153C15.686 16.8153 14.4103 16.833 13.1166 16.8153C12.1643 16.8153 11.8769 16.5324 11.8769 15.5953C11.8589 13.1198 11.8409 10.6444 11.8948 8.16895C12.0026 3.5717 15.8477 -0.0530512 20.5194 -0.0176878C25.2449 0.0176757 29.0002 3.7662 29.0002 8.39882C28.9822 12.9961 25.2629 16.7269 20.5733 16.7976C19.3874 16.833 18.1835 16.8153 16.9797 16.8153ZM17.3031 15.5599C18.4171 15.5599 19.5132 15.5953 20.6272 15.5599C24.6699 15.4361 27.7783 12.2358 27.7244 8.27504C27.6705 4.45579 24.5262 1.32612 20.6272 1.27308C16.5844 1.18467 13.2783 4.24361 13.1705 8.20432C13.0987 10.4322 13.1705 12.6778 13.1346 14.9057C13.1346 15.4892 13.3682 15.5776 13.8713 15.5776C15.0212 15.5422 16.1712 15.5599 17.3031 15.5599Z" fill="white"/>
<path d="M8.8761 16.0197C9.34326 17.3458 9.72058 18.4597 10.1159 19.556C10.2237 19.8566 10.1698 20.0157 9.82839 20.0157C9.73855 20.0157 9.64871 20.0157 9.55887 20.0157C7.42071 20.0865 7.42071 20.0865 8.12145 18.1061C8.33706 17.4872 8.57065 16.8507 8.8761 16.0197Z" fill="white"/>
<path d="M18.309 7.03733C17.4645 7.03733 16.638 7.01965 15.7935 7.03733C15.3982 7.03733 15.1826 6.9666 15.1826 6.50688C15.1826 6.04715 15.3982 5.97642 15.7935 5.97642C16.7278 5.99411 17.6442 5.97642 18.5785 5.99411C18.9738 5.99411 19.3152 5.97642 19.2433 5.44597C19.1715 4.9332 19.405 4.79175 19.9081 4.79175C20.4292 4.79175 20.6987 4.91552 20.6269 5.48134C20.555 5.95874 20.8604 5.99411 21.2378 5.99411C22.1901 5.97642 23.1603 6.01179 24.1126 5.97642C24.5438 5.95874 24.6876 6.1002 24.6876 6.52456C24.6876 6.91356 24.5259 7.09037 24.1485 7.01965C22.9088 6.7721 22.4416 7.37328 21.9205 8.46955C21.6331 9.08841 21.3276 9.49509 20.9682 9.95481C20.6808 10.3084 20.7167 10.556 21.0401 10.8389C21.6331 11.3694 22.1901 11.9528 22.801 12.4656C23.1423 12.7662 23.1962 12.9607 22.8908 13.3143C22.5314 13.721 22.3158 13.4381 22.0822 13.2259C21.5073 12.7132 20.9323 12.2004 20.3933 11.6346C20.0519 11.2633 19.8363 11.2279 19.4769 11.6169C18.9918 12.1473 18.6145 12.4479 17.9317 13.0845C17.6981 13.2967 17.4825 13.8094 16.9974 13.3143C16.4763 12.7839 16.9794 12.5717 17.2848 12.2888C17.8059 11.7937 18.309 11.2986 18.848 10.8389C19.1715 10.5383 19.2074 10.3084 18.9019 9.95481C18.5426 9.53045 18.2551 9.03536 17.9676 8.55796C17.8778 8.38114 17.5723 8.13359 17.8958 7.95678C18.1653 7.81532 18.5246 7.70923 18.8121 7.95678C18.9019 8.0275 18.9379 8.15128 18.9918 8.25737C20.016 9.79568 20.016 9.81336 20.9143 8.16896C21.0221 7.99214 21.094 7.79764 21.1839 7.62082C21.4174 7.19646 21.3635 6.98428 20.8065 7.00196C19.98 7.05501 19.1355 7.03733 18.309 7.03733Z" fill="white"/>
</g>
<defs>
<clipPath id="clip0_837_604">
<rect width="29" height="27" fill="white"/>
</clipPath>
</defs>
</svg>
