<svg width="24" height="23" viewBox="0 0 24 23" fill="none" xmlns="http://www.w3.org/2000/svg">
<g clip-path="url(#clip0_838_617)">
<path d="M13.6339 0.0153665C13.6153 0.0767636 13.567 0.0652516 13.5225 0.0652516C13.5113 0.0652516 13.5002 0.0652516 13.4854 0.0652516C13.4854 0.0499024 13.4854 0.0307158 13.4854 0.0153665C13.5373 -0.00382008 13.5856 -0.00382008 13.6339 0.0153665Z" fill="white"/>
<path d="M11.8516 5.90429C11.8738 5.85824 11.885 5.80452 11.937 5.78149C11.9221 5.83522 12.0224 5.96952 11.8516 5.90429Z" fill="white"/>
<path d="M10.6635 7.60098C10.1734 7.60098 9.68705 7.60482 9.19695 7.60482C6.9321 7.60482 4.66724 7.60482 2.40239 7.60482C2.37269 7.60482 2.33927 7.60098 2.30957 7.60098C2.33185 7.50889 2.40611 7.53575 2.4618 7.53575C5.14249 7.53575 7.8269 7.53575 10.5076 7.53575C10.567 7.53959 10.6375 7.51273 10.6635 7.60098Z" fill="white"/>
<path d="M12.7869 0.785579C12.8017 0.842784 12.8537 0.915243 12.7609 0.945752C12.6792 0.972447 12.6644 0.88092 12.6384 0.835157C12.5715 0.716934 12.5084 0.591084 12.4602 0.461421C12.4379 0.404216 12.3785 0.335571 12.4564 0.274553C12.5196 0.228789 12.5827 0.209721 12.6607 0.251671C12.7906 0.320317 12.928 0.377521 13.0616 0.442353C13.0988 0.461421 13.1767 0.465235 13.1545 0.530066C13.1359 0.583457 13.0802 0.598712 13.0171 0.587271C12.8649 0.560575 12.772 0.648289 12.7869 0.785579Z" fill="white"/>
<path d="M13.4852 0.0647805C13.4963 0.0647805 13.5074 0.0647805 13.5223 0.0647805C13.5446 0.270716 13.3886 0.339362 13.255 0.396566C13.1399 0.446143 13.047 0.350803 12.9765 0.263089C12.9468 0.228767 12.9097 0.171562 12.9542 0.125799C13.0025 0.0762214 13.0545 0.0991031 13.099 0.144867C13.1956 0.251648 13.2884 0.339362 13.3478 0.114358C13.3663 0.0380851 13.4369 0.0724077 13.4852 0.0647805Z" fill="white"/>
<path d="M21.516 -4.66865e-05C18.9504 -4.66865e-05 16.3811 -4.66865e-05 13.8155 -4.66865e-05C13.7561 -4.66865e-05 13.693 0.00758057 13.6336 0.0113942C13.615 0.0724123 13.5668 0.0609714 13.5222 0.0609714C13.5445 0.266907 13.3885 0.335553 13.2549 0.392757C13.1398 0.442334 13.047 0.346994 12.9764 0.25928C12.9467 0.224957 12.9096 0.167753 12.9541 0.121989C13.0024 0.0724123 13.0544 0.095294 13.0989 0.141058C13.1955 0.247839 13.2883 0.335553 13.3477 0.110549C13.3663 0.034276 13.4405 0.0685986 13.4888 0.0571578C13.4888 0.0419032 13.4888 0.0228351 13.4888 0.00758057C12.3675 -0.106828 11.1794 0.850393 11.0457 2.05931C10.9158 3.24154 11.0197 4.42376 10.9975 5.60599C10.9975 5.67082 11.0197 5.69752 11.0828 5.70514C11.3502 5.72802 11.5989 5.83099 11.8514 5.90727C11.8737 5.8615 11.8848 5.80811 11.9368 5.78523C11.9405 5.71658 11.9479 5.64794 11.9479 5.57929C11.9479 4.56105 11.9442 3.54663 11.9479 2.52839C11.9517 1.62837 12.5828 0.98387 13.4628 0.98387C16.1546 0.98387 18.8465 0.98387 21.5346 0.98387C22.4108 0.98387 23.0457 1.63219 23.0494 2.5322C23.0531 2.93263 23.0494 3.33307 23.0494 3.7335C23.0494 6.09795 23.0494 8.4624 23.0494 10.823C23.0494 11.7345 22.4182 12.3866 21.5309 12.3866C21.271 12.3866 21.0111 12.3942 20.7512 12.3828C20.6175 12.3752 20.5692 12.4095 20.5767 12.5582C20.5878 12.89 20.5804 13.218 20.5804 13.5498C20.5804 13.8434 20.5804 14.1409 20.5804 14.465C20.5024 14.4078 20.4541 14.3735 20.4059 14.3392C19.5556 13.7176 18.7017 13.096 17.8514 12.4743C17.792 12.4324 17.7363 12.3866 17.6546 12.3866C16.4554 12.3904 15.2561 12.3866 14.0531 12.3866C13.9789 12.3866 13.938 12.3981 13.9418 12.4896C13.9529 12.6993 13.9232 12.9091 13.9566 13.115C13.9566 13.1532 13.9566 13.1913 13.9566 13.2294C13.8972 13.401 14.0234 13.3667 14.1088 13.3667C15.1225 13.3667 16.1361 13.3705 17.1534 13.3629C17.3427 13.3629 17.4913 13.4163 17.6435 13.5269C18.8873 14.446 20.1385 15.3574 21.3898 16.2651C21.4306 16.2956 21.464 16.349 21.542 16.3414C21.542 16.2803 21.542 16.2193 21.542 16.1545C21.542 15.2888 21.5457 14.4269 21.5383 13.5612C21.5383 13.4087 21.568 13.3629 21.7239 13.3515C23.0717 13.2409 23.9962 12.1998 23.9999 10.8078C23.9999 8.05815 23.9999 5.30471 23.9999 2.55508C23.9999 1.07921 22.9492 -4.66865e-05 21.516 -4.66865e-05ZM13.1546 0.530048C13.1361 0.583439 13.0804 0.598693 13.0173 0.587252C12.8687 0.56437 12.7759 0.652084 12.7871 0.785561C12.8019 0.842765 12.8539 0.915224 12.7611 0.94192C12.6794 0.968615 12.6645 0.877088 12.6385 0.831324C12.5717 0.713102 12.5086 0.587252 12.4603 0.457589C12.438 0.400384 12.3786 0.331739 12.4566 0.270721C12.5197 0.224957 12.5828 0.205889 12.6608 0.247839C12.7908 0.316485 12.9281 0.373689 13.0618 0.438521C13.0989 0.457589 13.1769 0.461402 13.1546 0.530048Z" fill="white"/>
<path d="M15.4046 4.47712C15.4789 4.47712 15.5531 4.47712 15.6311 4.47712C15.7091 4.47712 15.787 4.47712 15.865 4.47712C16.8898 4.47712 17.9108 4.47712 18.9541 4.47712C18.646 5.45341 18.193 6.31147 17.6101 7.10089C17.5135 7.23056 17.4727 7.20768 17.391 7.09327C16.938 6.47927 16.5556 5.81952 16.2734 5.10255C16.2289 4.98814 16.188 4.96145 16.0766 5.01484C15.8762 5.11399 15.6719 5.20171 15.4603 5.27417C15.3378 5.31612 15.3341 5.36951 15.3786 5.4801C15.7202 6.32291 16.1658 7.10471 16.7301 7.81023C16.8341 7.94371 16.8192 8.00091 16.7078 8.10769C15.9393 8.83228 15.0779 9.40433 14.1051 9.79332C13.9789 9.84289 13.9455 9.89247 14.0049 10.0221C14.094 10.2166 14.1682 10.4188 14.2276 10.6247C14.2722 10.7696 14.3279 10.7696 14.4504 10.72C15.5346 10.27 16.5073 9.64077 17.3539 8.81703C17.4764 8.69499 17.5321 8.71787 17.6435 8.82466C18.4937 9.64459 19.4702 10.2738 20.5507 10.7238C20.6843 10.781 20.7289 10.7467 20.7697 10.6171C20.8328 10.4188 20.9034 10.2204 20.9888 10.0298C21.0482 9.89629 21.0259 9.83908 20.8885 9.78569C19.9046 9.38907 19.0321 8.8094 18.2598 8.06956C18.1818 7.99328 18.1559 7.94752 18.2375 7.84455C19.0024 6.8797 19.5667 5.80045 19.912 4.60678C19.9417 4.50763 19.9789 4.46568 20.0903 4.46949C20.4059 4.47712 20.7215 4.46949 21.037 4.4733C21.1187 4.4733 21.1781 4.46568 21.1373 4.3589C21.1373 4.34745 21.1373 4.3322 21.1373 4.32076C21.141 4.0805 21.1447 3.84024 21.1484 3.59998C21.1484 3.53896 21.1484 3.47795 21.0593 3.50464C21.0445 3.50464 21.0296 3.50464 21.0148 3.50464C20.9479 3.50083 20.8811 3.4932 20.8143 3.4932C19.9417 3.4932 19.0729 3.48557 18.2004 3.49701C17.9999 3.50083 17.9516 3.436 17.9665 3.24532C17.9814 3.05082 17.9628 2.85251 17.9739 2.6542C17.9776 2.54361 17.9442 2.5131 17.8403 2.51691C17.6138 2.52454 17.3836 2.52454 17.1534 2.51691C17.0494 2.5131 17.0123 2.54361 17.016 2.6542C17.0234 2.88302 17.0123 3.11184 17.0197 3.34066C17.0234 3.45506 16.9974 3.4932 16.8786 3.48939C16.6373 3.48176 16.3997 3.4932 16.1583 3.49701C16.0952 3.47795 16.0321 3.47795 15.969 3.49701C15.9318 3.48176 15.8947 3.47795 15.8576 3.49701C15.8353 3.49701 15.8093 3.49701 15.787 3.49701C15.7982 3.51608 15.813 3.53515 15.8242 3.55041C15.813 3.53134 15.7982 3.51227 15.787 3.49701C15.1559 3.47413 14.521 3.47795 13.8898 3.49701C13.8526 3.50083 13.8489 3.5199 13.8564 3.55041C13.8415 3.8288 13.8415 4.11101 13.8564 4.3894C13.8564 4.40084 13.8564 4.4161 13.8564 4.42754C13.8526 4.45805 13.8712 4.46568 13.8935 4.45805C14.3019 4.45805 14.7066 4.45805 15.115 4.45424C15.2116 4.47712 15.3081 4.47712 15.4046 4.47712Z" fill="white"/>
<path d="M13.0026 9.09934C12.9989 7.75695 11.9481 6.63955 10.6449 6.63192C7.88624 6.61667 5.12757 6.61667 2.36891 6.63192C1.0694 6.63955 0.0112353 7.74169 0.00752243 9.07265C9.66894e-05 11.8947 9.66894e-05 14.7168 0.00752243 17.5351C0.0112353 18.8355 1.01 19.9072 2.27237 19.972C2.44688 19.9796 2.46544 20.0406 2.46544 20.1932C2.45802 21.1161 2.46173 22.0352 2.46173 22.9962C2.5397 22.939 2.59539 22.9009 2.65109 22.8627C3.92089 21.936 5.19069 21.0093 6.45678 20.0788C6.55331 20.0063 6.64614 19.9796 6.76495 19.9796C8.03846 19.9834 9.31198 19.9873 10.5892 19.9796C11.9407 19.9758 13.0063 18.8851 13.01 17.5008C13.0063 14.7054 13.0063 11.9024 13.0026 9.09934ZM12.0744 7.73406C12.0744 7.7455 12.0744 7.75695 12.0781 7.76839C12.0744 7.75695 12.0744 7.7455 12.0744 7.73406ZM12.0744 7.71118C12.0744 7.69593 12.0744 7.67686 12.0706 7.6616C12.0744 7.67686 12.0744 7.69593 12.0744 7.71118ZM12.0298 7.60059H12.0335H12.0298ZM11.9927 7.59677C11.9964 7.59677 12.0038 7.59677 12.0075 7.59677C12.0038 7.59677 12.0001 7.59677 11.9927 7.59677C11.9407 7.60059 11.9296 7.64254 11.9258 7.6883C11.9296 7.64254 11.9407 7.60059 11.9927 7.59677ZM11.9927 8.19933C11.989 8.19551 11.989 8.19551 11.9852 8.1917C11.989 8.1917 11.9927 8.19551 11.9927 8.19933ZM11.9852 8.18789C11.8887 8.09254 11.7959 7.99339 11.7031 7.89805C11.7959 7.9972 11.8924 8.09254 11.9852 8.18789ZM11.9258 7.73406C11.9258 7.71881 11.9258 7.70355 11.9258 7.6883C11.9258 7.70355 11.9258 7.71881 11.9258 7.73406C11.9258 7.75695 11.9258 7.7722 11.9221 7.78745C11.9221 7.79508 11.9184 7.80271 11.9147 7.80652C11.9184 7.7989 11.9184 7.79508 11.9221 7.78745C11.9258 7.7722 11.9258 7.75313 11.9258 7.73406ZM11.7179 7.6883C11.7513 7.71881 11.781 7.74932 11.8107 7.77983C11.8256 7.79508 11.8367 7.80652 11.8479 7.81415C11.8627 7.82559 11.8776 7.8294 11.8887 7.8294C11.8776 7.8294 11.8627 7.82559 11.8479 7.81415C11.8367 7.80652 11.8219 7.79508 11.8107 7.77983C11.781 7.74932 11.7513 7.71881 11.7179 7.6883C11.6845 7.65779 11.6548 7.61203 11.614 7.6311C11.6548 7.61203 11.6882 7.65779 11.7179 7.6883ZM7.01371 19.6822C7.03599 19.7241 7.05455 19.7508 7.06569 19.7584C7.05455 19.7508 7.03599 19.7203 7.01371 19.6822ZM7.1845 19.6593C7.1548 19.5716 7.16594 19.4991 7.20678 19.4533C7.16594 19.4953 7.1548 19.5716 7.1845 19.6593ZM7.16965 19.7584C7.17708 19.7508 7.1845 19.7432 7.18822 19.7356C7.1845 19.7432 7.17708 19.7508 7.16965 19.7584ZM7.36643 19.4076C7.34787 19.4038 7.3293 19.4038 7.31074 19.4038C7.3293 19.4038 7.34787 19.4038 7.36643 19.4076C7.39242 19.4114 7.41841 19.419 7.44069 19.4228C7.41841 19.4228 7.39242 19.4152 7.36643 19.4076ZM7.42213 19.2398C7.43326 19.2474 7.44812 19.255 7.46297 19.2627C7.44812 19.255 7.43326 19.2512 7.42213 19.2398ZM12.0521 17.455C12.0521 18.3665 11.4172 19.011 10.5298 19.0148C9.38624 19.0186 8.24267 19.0186 7.09911 19.0224C6.99886 19.0224 6.90232 19.0224 6.80208 19.0224C6.79836 19.0377 6.80208 19.0644 6.8095 19.1025C6.80208 19.0682 6.79836 19.0377 6.80208 19.0224C6.46421 18.9728 6.17831 19.0529 5.89614 19.2741C5.14614 19.8576 4.37015 20.3991 3.60529 20.9597C3.55331 20.9979 3.49762 21.036 3.41965 21.0932C3.41965 20.5593 3.41965 20.0559 3.41965 19.5487C3.41965 19.3771 3.47534 19.1521 3.38995 19.0529C3.29341 18.9385 3.06693 19.0224 2.89614 19.0148C2.68079 19.0072 2.46173 19.0262 2.24638 18.9995C1.57064 18.9118 1.1251 18.4542 0.958017 17.7143C0.954305 17.7029 0.954305 17.6876 0.950592 17.6762C0.950592 16.2461 0.950592 14.816 0.950592 13.3897C0.950592 13.3325 0.946879 13.2753 0.943166 13.2181C0.943166 13.1914 0.943166 13.1685 0.943166 13.1418C0.943166 13.077 0.943166 13.0159 0.943166 12.9511C0.943166 12.8367 0.943166 12.7223 0.943166 12.6079C0.946879 11.46 0.950592 10.3159 0.950592 9.16799C0.950592 8.71417 1.09911 8.32518 1.41841 8.00864C1.66718 7.76457 1.97534 7.64254 2.31322 7.59677C2.33549 7.50525 2.40975 7.53194 2.46544 7.53194C5.14614 7.53194 7.83054 7.53194 10.5112 7.53194C10.5669 7.53194 10.6412 7.50525 10.6672 7.59296C11.3912 7.69974 11.8627 8.10399 12.0187 8.75993C12.0521 8.89722 12.0558 9.03451 12.0558 9.17562C12.0521 11.9405 12.0558 14.6978 12.0521 17.455ZM12.1115 8.23746C12.0966 8.2489 12.0855 8.25272 12.0744 8.25272C12.0818 8.25272 12.0966 8.2489 12.1115 8.23746C12.1226 8.22984 12.1338 8.21839 12.1375 8.20695C12.13 8.21839 12.1226 8.22602 12.1115 8.23746ZM12.2006 7.9972C12.2154 7.9972 12.234 7.9972 12.2489 7.9972C12.234 7.9972 12.2154 7.9972 12.2006 7.9972ZM12.1895 7.84466C12.1523 7.84085 12.1226 7.83322 12.1041 7.81796C12.1226 7.83703 12.1523 7.84466 12.1895 7.84466C12.2674 7.85229 12.3454 7.87517 12.4308 7.89424C12.3417 7.87517 12.2674 7.85229 12.1895 7.84466Z" fill="white"/>
<path d="M10.3071 16.5397C10.2403 16.3986 10.1772 16.2575 10.1104 16.1164C10.1104 16.1088 10.1104 16.1011 10.1066 16.0973C9.10417 13.9121 8.09798 11.7269 7.09551 9.53788C7.06209 9.46161 7.01753 9.43872 6.93956 9.44254C6.66852 9.44635 6.39377 9.45017 6.12273 9.44254C5.99278 9.43872 5.92966 9.47686 5.87397 9.60271C5.43585 10.5676 4.99031 11.5324 4.54848 12.4934C3.8913 13.9274 3.23412 15.3613 2.57694 16.799C2.52496 16.9096 2.46927 17.0202 2.41357 17.1423C2.61778 17.1423 2.79971 17.1423 2.98164 17.1423C3.01135 17.1423 3.04476 17.1423 3.07447 17.1423C3.06704 17.1232 3.05961 17.1003 3.05219 17.0812C3.05961 17.1003 3.06704 17.1232 3.07447 17.1423C3.16729 17.1461 3.26011 17.1423 3.34922 17.1499C3.42348 17.1537 3.47174 17.1346 3.50516 17.0545C3.62397 16.7761 3.75021 16.5054 3.87273 16.2308C4.0955 15.7579 4.32199 15.2888 4.53362 14.8083C4.58932 14.6825 4.65615 14.6481 4.7861 14.6481C5.17595 14.652 5.56209 14.6405 5.95194 14.6367C5.98907 14.652 6.0262 14.652 6.05961 14.6367C6.12645 14.6405 6.19328 14.6481 6.26011 14.6481C6.91357 14.6481 7.57075 14.652 8.22422 14.6443C8.35788 14.6443 8.41729 14.6863 8.47298 14.8083C8.71803 15.3575 8.9705 15.899 9.22298 16.4405C9.24526 16.4863 9.24154 16.5588 9.31209 16.574L9.3158 16.5778C9.34179 16.7685 9.4606 16.9173 9.52372 17.0927C9.54229 17.1423 9.58684 17.1423 9.6314 17.1423C9.94328 17.1423 10.2589 17.1423 10.5967 17.1423C10.4965 16.9363 10.4 16.738 10.3071 16.5397ZM5.94823 14.5948C5.94823 14.61 5.94823 14.6253 5.94823 14.6443C5.94823 14.6253 5.94823 14.61 5.94823 14.5948C5.95937 14.5948 5.97422 14.5948 5.98536 14.5948C5.97422 14.5948 5.96308 14.5948 5.94823 14.5948ZM7.80466 13.6757C6.94699 13.6757 6.0856 13.6757 5.22793 13.6795C5.11283 13.6795 5.05714 13.6795 5.12397 13.5307C5.58065 12.5468 6.03362 11.5591 6.50145 10.537C6.98783 11.5972 7.45937 12.6193 7.92719 13.6375C7.89006 13.7024 7.84179 13.6757 7.80466 13.6757Z" fill="white"/>
</g>
<defs>
<clipPath id="clip0_838_617">
<rect width="24" height="23" fill="white"/>
</clipPath>
</defs>
</svg>
