<svg width="26" height="24" viewBox="0 0 26 24" fill="none" xmlns="http://www.w3.org/2000/svg">
<g clip-path="url(#clip0_838_610)">
<path d="M25.332 14.7448L25.3382 14.7324C25.3444 14.7013 25.3569 14.6701 25.3569 14.6453C24.9337 11.8133 23.4337 9.76558 20.8631 8.51455C20.1162 8.15355 19.3258 7.92326 18.4855 7.87969C18.4855 7.87969 18.4731 7.88592 18.4731 7.89214C17.5955 7.71787 16.7241 7.8299 15.8652 8.02285C15.6536 8.06641 15.6038 8.04152 15.6038 7.81745C15.5851 5.30293 14.5706 3.25521 12.6162 1.68675C11.4648 0.75936 10.1453 0.230314 8.67639 0.0871605C8.63282 0.0871605 8.59548 0.0871605 8.55191 0.0809365C8.01664 0.0186958 7.36933 -0.0746652 6.84651 0.0871605C4.33199 0.45438 2.36519 1.68675 1.1017 3.89007C-0.423196 6.56641 -0.348507 9.27388 1.20129 11.9378C1.26975 12.056 1.33821 12.1556 1.30087 12.305C1.15772 13.0021 1.02701 13.7054 0.896306 14.4025C0.784273 15 0.678464 15.5913 0.560206 16.2199C1.81124 15.778 3.01871 15.361 4.22618 14.9253C4.39423 14.8631 4.53116 14.8693 4.69299 14.944C5.48344 15.2988 6.31124 15.5042 7.17639 15.5664C7.2822 15.5664 7.38178 15.5726 7.48759 15.5726C8.18469 15.6224 8.86933 15.5664 9.54776 15.3921C9.77182 15.3361 9.84651 15.3735 9.84029 15.6287C9.82784 17.2967 10.3133 18.8092 11.3029 20.1473C12.7158 22.0643 14.6266 23.1411 17.0104 23.3403C17.0913 23.3403 17.1785 23.3465 17.2594 23.3465C17.5083 23.3465 17.7573 23.3465 18.0063 23.3465C18.0685 23.3465 18.1307 23.3403 18.193 23.3403C19.083 23.2905 19.9295 23.0726 20.7386 22.7179C20.9005 22.6432 21.0374 22.6432 21.2054 22.7054C22.1577 23.054 23.1162 23.3838 24.0685 23.7199C24.3237 23.8071 24.5789 23.888 24.8652 23.9876C24.6162 22.6681 24.3797 21.3984 24.137 20.1349C24.1059 19.9793 24.1245 19.8672 24.2117 19.7303C24.6411 19.0643 24.9461 18.3423 25.1453 17.5768C25.2013 17.3652 25.3133 17.1535 25.2324 16.917C25.2324 16.917 25.2386 16.917 25.2386 16.9108C25.3382 16.7677 25.3444 16.6058 25.3444 16.4378C25.3444 16.3942 25.3444 16.3569 25.3507 16.3133C25.4378 15.8029 25.444 15.2739 25.332 14.7448ZM17.9627 7.94193C18.0561 7.94193 18.1494 7.9855 18.2428 7.99795C18.1494 7.9855 18.0561 7.94193 17.9627 7.94193ZM14.5146 8.43986C14.4959 8.42119 14.4834 8.39629 14.4772 8.37762C14.4834 8.39629 14.4959 8.42119 14.5146 8.43986ZM14.4648 8.33405C14.4648 8.3216 14.4648 8.30293 14.4648 8.29048C14.4648 8.30293 14.4648 8.31538 14.4648 8.33405ZM8.32162 0.168073C8.27805 0.180522 8.23448 0.199194 8.19091 0.248986C8.23448 0.199194 8.27805 0.180522 8.32162 0.168073ZM6.95232 0.136953C7.00211 0.174297 7.05813 0.199194 7.11415 0.205418C7.13282 0.211642 7.15772 0.211642 7.17639 0.211642C7.15149 0.211642 7.13282 0.211642 7.11415 0.205418C7.05813 0.199194 7.00834 0.180522 6.95232 0.136953ZM8.38386 14.5021C8.36518 14.4897 8.35274 14.4772 8.34029 14.471C8.35274 14.4834 8.36518 14.4959 8.38386 14.5021ZM8.2407 14.3963C7.97307 14.3963 7.69921 14.3963 7.43158 14.3963C6.48552 14.334 5.59548 14.0664 4.75523 13.6307C4.61207 13.556 4.49382 13.5498 4.34444 13.6058C3.73448 13.8299 3.1183 14.0477 2.50212 14.2594C2.40253 14.2967 2.30294 14.3714 2.15979 14.3216C2.2905 13.6121 2.41498 12.9025 2.55813 12.1992C2.60792 11.9627 2.5768 11.776 2.42743 11.5706C-0.360956 7.66185 2.04153 2.03529 6.7905 1.33197C10.4129 0.796704 13.693 3.1743 14.3154 6.78426C14.3527 7.02077 14.3714 7.25729 14.4025 7.4938C14.415 7.48758 14.4274 7.47513 14.4399 7.46268C14.4337 7.47513 14.4212 7.48135 14.4025 7.4938C14.4025 7.69919 14.4025 7.91081 14.4025 8.11621C14.1785 10.6494 12.971 12.5415 10.7054 13.7241C9.93365 14.1224 9.0934 14.3029 8.2407 14.3963ZM24.1743 16.2075C24.1743 16.2511 24.1681 16.2884 24.1681 16.332C24.0063 17.4897 23.6204 18.5602 22.9108 19.4938C22.7801 19.6618 22.8548 19.8299 22.8859 19.9979C23.0104 20.7013 23.1473 21.3984 23.278 22.0955C23.1473 22.1701 23.0478 22.083 22.9482 22.0457C22.3258 21.8278 21.7034 21.61 21.081 21.3859C20.9502 21.3361 20.832 21.3299 20.7013 21.4046C19.861 21.8652 18.9523 22.0892 18.0063 22.1826C17.7386 22.1826 17.4648 22.1826 17.1971 22.1826C15.915 22.0581 14.7324 21.6598 13.6992 20.8755C12.137 19.6805 11.2594 18.0996 11.054 16.1453C11.0478 16.1017 11.0415 16.0643 11.0353 16.0208C11.0353 15.7531 11.0353 15.4793 11.0353 15.2116C11.0291 14.9751 11.1536 14.8631 11.3652 14.7511C13.4751 13.6432 14.8133 11.9253 15.3922 9.61621C15.4357 9.42948 15.5291 9.36102 15.6847 9.31123C19.4316 8.11621 23.527 10.6743 24.1121 14.5643C24.193 15.1121 24.1992 15.6536 24.1743 16.2075Z" fill="white"/>
<path d="M14.2157 13.1577C14.1846 13.1826 14.1535 13.2137 14.1223 13.2386C14.0974 13.1515 14.1597 13.1577 14.2157 13.1577Z" fill="white"/>
<path d="M10.8051 10.3818C10.774 10.2822 10.7491 10.1826 10.7118 10.0893C10.0644 8.32785 9.41092 6.56644 8.76362 4.80503C8.68893 4.59341 8.65159 4.36312 8.48354 4.19507C8.53333 4.01457 8.47109 3.92744 8.27192 3.93366C7.91715 3.94611 7.55615 3.94611 7.19515 3.95233C7.03333 3.89632 7.03333 4.03325 7.00221 4.12038C6.20553 6.37349 5.41507 8.63283 4.61217 10.8797C4.51881 11.1349 4.62462 11.1349 4.81134 11.1038C5.07897 11.1038 5.35283 11.1038 5.62047 11.1038C5.78852 11.0789 5.76362 10.9171 5.80719 10.8175C5.99391 10.3258 6.16196 9.82785 6.33001 9.32993C6.38603 9.16188 6.46071 9.08096 6.65366 9.08719C7.3881 9.09964 8.12254 9.09964 8.85698 9.08719C9.06237 9.08096 9.14329 9.16188 9.20553 9.34237C9.37358 9.82785 9.5603 10.3133 9.7408 10.7926C9.76569 11.0478 9.88395 11.1785 10.1578 11.11C10.3259 11.11 10.4877 11.11 10.6557 11.11C10.7864 11.1225 10.9171 11.1411 11.079 11.0913C10.9918 10.8424 10.8985 10.6121 10.8051 10.3818ZM8.60802 8.09756C8.04785 8.10379 7.48769 8.11001 6.93374 8.11001C6.89018 8.11001 6.85283 8.11001 6.80926 8.11001C6.75325 8.08511 6.73457 8.03532 6.75325 7.98553C7.0769 7.0208 7.40055 6.06229 7.73665 5.05399C8.09142 6.04984 8.42752 6.9959 8.76984 7.94196C8.83831 8.12868 8.70138 8.09134 8.60802 8.09756ZM10.108 10.9793C10.0893 10.9793 10.0769 10.9731 10.0582 10.9731C10.0707 10.9731 10.0893 10.9793 10.108 10.9793C10.3383 10.9793 10.5624 10.9793 10.7927 10.9793C10.5624 10.9793 10.3321 10.9793 10.108 10.9793Z" fill="white"/>
<path d="M20.9625 18.2552C20.1659 18.0934 19.4128 17.8071 18.7157 17.3839C18.5476 17.2843 18.5601 17.222 18.6721 17.0913C19.2883 16.3569 19.6928 15.5104 19.8796 14.5706C19.9169 14.3963 19.9854 14.3528 20.1472 14.359C20.4086 14.3714 20.6638 14.3652 20.9252 14.359C21.0186 14.359 21.1555 14.4025 21.1181 14.2158C21.1181 13.8797 21.1181 13.5498 21.1181 13.2138C21.1057 13.1391 21.0746 13.1204 21.0186 13.1889C20.9812 13.1764 20.9439 13.1515 20.9065 13.1515C20.0663 13.1515 19.226 13.1577 18.3796 13.164C18.3173 13.1515 18.2426 13.1577 18.1991 13.0955C18.2053 12.7905 18.1991 12.4855 18.2177 12.1806C18.2302 11.9938 18.1368 11.9752 17.9937 12.0125C17.7323 11.9752 17.4708 11.9752 17.2094 12.0125C17.1347 12.0125 17.0227 11.9378 17.0165 12.0934C17.0103 12.442 17.004 12.7905 16.9916 13.1453C16.9542 13.1515 16.9231 13.1577 16.8858 13.1577C15.9957 13.1577 15.0995 13.1577 14.2094 13.1577C14.1783 13.1826 14.1472 13.2138 14.1161 13.2386V13.2573C14.1099 13.5561 14.1223 13.8611 14.0974 14.1598C14.085 14.3403 14.1596 14.3652 14.3152 14.359C14.5518 14.3528 14.7945 14.3777 15.031 14.3528C15.2613 14.3279 15.3298 14.4274 15.3733 14.6328C15.5538 15.5353 15.9397 16.3445 16.5248 17.0478C16.7053 17.2656 16.6368 17.3279 16.4439 17.4337C15.7592 17.8382 15.0248 18.1121 14.253 18.2677C14.0538 18.305 13.9791 18.3797 14.0414 18.5976C14.1099 18.8341 14.1534 19.083 14.1845 19.3258C14.2032 19.4876 14.253 19.5187 14.4211 19.4814C15.5103 19.2449 16.5435 18.8652 17.4646 18.2117C17.5891 18.1245 17.67 18.1245 17.7883 18.2117C18.5663 18.7656 19.4314 19.1204 20.3464 19.3694C21.0186 19.5499 21.0186 19.5436 21.143 18.8528C21.1555 18.7718 21.1679 18.6847 21.1991 18.61C21.2924 18.3735 21.1742 18.2988 20.9625 18.2552ZM17.7323 16.332C17.6389 16.444 17.5891 16.4378 17.502 16.332C17.0725 15.803 16.7675 15.2055 16.587 14.5519C16.5435 14.3963 16.5933 14.3465 16.7489 14.3528C17.0414 14.359 17.3277 14.3528 17.6202 14.3528C17.9128 14.3528 18.1991 14.359 18.4916 14.3528C18.6347 14.3528 18.697 14.3652 18.6472 14.5457C18.4667 15.2055 18.1617 15.7967 17.7323 16.332Z" fill="white"/>
</g>
<defs>
<clipPath id="clip0_838_610">
<rect width="25.4191" height="24" fill="white"/>
</clipPath>
</defs>
</svg>
