<svg width="27" height="27" viewBox="0 0 27 27" fill="none" xmlns="http://www.w3.org/2000/svg">
<g clip-path="url(#clip0_837_598)">
<path d="M5.12088 11.8201C5.12088 11.2138 5.12088 10.636 5.12088 10.0367C5.61845 10.0367 6.07456 10.0367 6.56521 10.0367C6.56521 10.6074 6.56521 11.1852 6.56521 11.8058C8.28597 11.8058 9.97218 11.8058 11.6791 11.8058C11.6791 12.3408 11.6791 12.833 11.6791 13.3823C11.1746 13.3823 10.6702 13.3681 10.1726 13.3895C10.062 13.3966 9.89616 13.4822 9.8616 13.5749C9.0807 15.6008 8.05101 17.4698 6.6205 19.1247C7.31157 19.8452 8.13394 20.3374 9.05997 20.744C8.88029 21.2291 8.70752 21.7142 8.52093 22.2206C7.48433 21.8212 6.57903 21.2505 5.7774 20.5086C5.56317 20.316 5.43186 20.2732 5.17617 20.4729C4.1603 21.2647 3.02695 21.7998 1.74847 21.971C1.6379 21.9852 1.52042 21.9995 1.40294 22.0066C1.32692 22.0138 1.244 22.0066 1.13343 22.0066C1.10578 21.4859 1.07814 20.9794 1.0505 20.4444C2.32206 20.3374 3.42086 19.8809 4.42291 19.0605C3.43468 17.7194 2.6745 16.2642 2.21149 14.6164C2.72288 14.4809 3.20663 14.3525 3.7042 14.2241C4.12575 15.5794 4.71315 16.8135 5.56317 17.9691C6.72416 16.6066 7.55344 15.0943 8.24451 13.3966C5.45951 13.3966 2.74361 13.3966 -0.00683594 13.3966C-0.00683594 12.9044 -0.00683594 12.4692 -0.00683594 12.027C-0.00683594 11.7773 0.165931 11.8201 0.311055 11.8201C1.54115 11.8201 2.77125 11.8201 4.00827 11.8201C4.36762 11.8201 4.72697 11.8201 5.12088 11.8201Z" fill="white"/>
<path d="M27.0001 13.5749C26.4403 13.5749 25.9428 13.5607 25.4521 13.5821C25.231 13.5892 25.1342 13.5107 25.0513 13.3039C24.5952 12.1126 24.1184 10.9284 23.6553 9.73715C23.5793 9.53741 23.4895 9.44467 23.2614 9.44467C22.0866 9.45894 20.9118 9.45894 19.737 9.44467C19.5297 9.44467 19.4329 9.51601 19.3638 9.70861C18.9077 10.8999 18.4378 12.0912 17.9817 13.2825C17.8987 13.5036 17.7951 13.5892 17.5532 13.5821C17.0626 13.5607 16.5719 13.5749 16.019 13.5749C16.178 13.1683 16.3162 12.8045 16.4544 12.4478C17.8227 8.9596 19.191 5.47136 20.5455 1.97598C20.663 1.66925 20.8012 1.51944 21.1399 1.55511C21.513 1.59078 21.983 1.44811 22.2525 1.63358C22.5151 1.81905 22.5911 2.30412 22.7293 2.66793C24.0838 6.1205 25.4383 9.58021 26.7928 13.0399C26.8619 13.1969 26.9172 13.3609 27.0001 13.5749ZM22.8952 7.78259C22.4391 6.61271 21.9899 5.47136 21.5061 4.24441C21.0224 5.48563 20.5801 6.61984 20.124 7.78259C21.0777 7.78259 21.9622 7.78259 22.8952 7.78259Z" fill="white"/>
<path d="M17.8364 3.0317C16.5787 3.45971 15.3693 3.86631 14.1185 4.29432C14.1876 3.83778 14.2567 3.41691 14.3189 3.00317C11.3335 2.5395 6.44074 4.00898 4.00819 9.00951C3.55899 8.78837 3.1098 8.56724 2.61914 8.3247C3.73867 5.97781 5.36959 4.15878 7.55336 2.88904C9.73022 1.62642 12.0729 1.11995 14.5884 1.36962C14.6714 0.898811 14.7543 0.442272 14.8372 0C15.8254 0.998679 16.8068 1.99022 17.8364 3.0317Z" fill="white"/>
<path d="M10.2764 24.3464C11.4788 23.7258 12.6053 23.1409 13.7801 22.5345C13.7801 23.0053 13.7801 23.4191 13.7801 23.9113C18.431 23.3691 21.5131 20.8439 23.144 16.3356C23.614 16.4854 24.077 16.6352 24.5953 16.7992C23.8282 19.3031 22.4599 21.3361 20.4834 22.9197C18.507 24.5033 16.261 25.3594 13.7248 25.4949C13.7248 25.98 13.7248 26.4365 13.7248 27.0072C12.5362 26.087 11.4304 25.2381 10.2764 24.3464Z" fill="white"/>
</g>
<defs>
<clipPath id="clip0_837_598">
<rect width="27" height="27" fill="white"/>
</clipPath>
</defs>
</svg>
