<svg width="31" height="31" viewBox="0 0 31 31" fill="none" xmlns="http://www.w3.org/2000/svg">
<g clip-path="url(#clip0_837_594)">
<path d="M26.4731 15.7183C26.3893 21.7638 21.4433 26.6506 15.4579 26.5834C9.35519 26.5163 4.4428 21.4951 4.56017 15.416C4.67753 9.26977 9.64021 4.50054 15.7933 4.6013C21.7284 4.73564 26.5569 9.73998 26.4731 15.7183ZM23.0193 21.747C22.4996 22.0325 21.9128 21.9149 21.3763 21.8982C20.8565 21.8814 20.5883 22.0493 20.3368 22.5027C19.7835 23.5103 19.0458 24.3835 18.1572 25.1392C20.2362 24.6858 21.896 23.5607 23.2205 21.8982C23.2876 21.8142 23.3546 21.7134 23.4217 21.6295C26.2384 18.2373 26.1713 12.6956 23.2541 9.37053C21.9799 7.72481 20.3871 6.58288 18.3249 6.19664C19.1464 6.96912 19.8674 7.80877 20.3871 8.79957C20.6218 9.25298 20.9236 9.33694 21.3763 9.35374C21.7619 9.35374 22.181 9.26977 22.5667 9.33694C22.9523 9.40412 23.1702 9.85753 22.9355 10.1766C22.6673 10.5628 22.0637 10.2774 21.611 10.3277C21.393 10.3445 21.2757 10.5628 21.326 10.7644C21.7284 12.0406 22.0134 13.3841 22.0637 14.7611C22.0804 15.1473 22.3319 15.1138 22.5834 15.1138C23.2038 15.1138 23.8073 15.1138 24.4277 15.1138C24.8133 15.1138 25.2157 15.1138 25.2492 15.6008C25.2827 16.2557 24.5786 16.0878 24.1762 16.1213C23.7738 16.1717 23.3546 16.1549 22.9523 16.1213C22.3487 16.0542 22.0804 16.1381 22.0469 16.7763C22.0134 17.8846 21.8625 19.0098 21.4433 20.0509C21.1416 20.8234 21.3428 21.0249 22.114 20.941C22.6002 20.8906 23.187 20.8234 23.1199 21.6295C23.0193 21.6463 23.0026 21.6798 23.0193 21.747ZM8.03069 9.62243C8.04746 9.48808 8.16482 9.37053 8.29894 9.35374C8.80192 9.26977 9.32166 9.33694 9.82463 9.32015C10.0761 9.30336 10.3444 9.37053 10.4953 9.08505C11.0485 8.01029 11.8198 7.12026 12.6078 6.19664C10.6294 6.68364 9.03664 7.7416 7.81273 9.37053C4.84518 12.7291 4.82842 18.4556 7.7792 21.8142C9.03664 23.5271 10.7468 24.5683 12.8089 25.1056C12.6078 24.7866 12.3227 24.5683 12.0713 24.3164C11.803 24.0477 11.5012 23.7622 11.3336 23.4263C10.7803 22.2508 9.95876 21.6295 8.60073 21.915C8.5169 21.9317 8.43307 21.915 8.34924 21.8814C8.11452 21.7974 7.94686 21.5791 7.96363 21.3272C7.99716 21.0585 8.21511 20.9242 8.63426 20.9242C8.85222 20.9242 9.08694 20.9074 9.30489 20.9242C9.77434 20.9745 9.8917 20.8402 9.72404 20.37C9.28813 19.1777 9.08694 17.9518 9.01987 16.6923C9.00311 16.1885 8.80192 16.0878 8.34924 16.1046C7.74567 16.1381 7.12534 16.1046 6.505 16.1046C6.13615 16.1046 5.78407 16.0374 5.80084 15.6008C5.8176 15.1641 6.16968 15.097 6.52177 15.1138C7.1421 15.1138 7.74567 15.0802 8.36601 15.1306C8.83545 15.1641 8.98634 14.9962 9.00311 14.526C9.05341 13.4177 9.23783 12.3093 9.58991 11.2346C9.87493 10.3445 9.85816 10.3445 8.90251 10.3277C8.09775 10.3109 7.9301 10.2102 8.03069 9.62243ZM15.022 18.506C15.022 17.8846 15.0053 17.2801 15.022 16.6587C15.0388 16.2221 14.9047 16.071 14.452 16.0878C13.1443 16.1213 11.8365 16.1046 10.512 16.0878C10.1432 16.0878 9.94199 16.1381 9.97552 16.5915C10.0761 17.935 10.3108 19.2449 10.7971 20.5043C10.9144 20.8234 11.1156 20.9074 11.4342 20.9074C12.4736 20.8906 13.4963 20.8906 14.5358 20.9074C14.8879 20.9074 15.0388 20.7898 15.022 20.4204C15.0053 19.7822 15.022 19.1441 15.022 18.506ZM16.0112 18.338C16.0112 19.1105 16.028 19.7486 16.0112 20.4036C15.9945 20.8066 16.1453 20.941 16.5477 20.9242C17.5537 20.9074 18.5596 20.9074 19.5656 20.9242C19.968 20.941 20.1524 20.7562 20.2865 20.4036C20.7224 19.2113 20.9404 17.9854 21.0577 16.7259C21.108 16.2725 20.9907 16.071 20.4877 16.0878C19.8003 16.1213 19.0961 16.0878 18.392 16.1046C17.6375 16.1213 16.6483 15.8527 16.2124 16.2389C15.6591 16.6755 16.095 17.6999 16.0112 18.338ZM12.4904 15.097C13.161 15.097 13.8317 15.0802 14.5023 15.097C14.9047 15.1138 15.022 14.9626 15.022 14.5764C15.0053 13.3505 15.0053 12.1078 15.022 10.8819C15.0388 10.4453 14.9047 10.2941 14.4688 10.3109C13.4963 10.3445 12.5072 10.3445 11.5347 10.3109C11.0988 10.2941 10.8976 10.4621 10.7468 10.8651C10.3947 11.8727 10.1767 12.9139 10.0426 13.9718C9.90846 15.097 9.90846 15.097 11.0653 15.097C11.5347 15.097 12.021 15.097 12.4904 15.097ZM18.5764 15.1977C19.8171 15.1977 20.538 15.4832 20.9236 14.929C21.3595 14.2909 20.8901 13.1993 20.7057 12.3261C20.2697 10.3109 20.253 10.3109 18.2578 10.3277C17.5369 10.3277 16.598 10.0255 16.1621 10.4621C15.7262 10.8987 15.9106 11.8223 15.9106 12.5444C15.9274 13.3673 15.6591 14.5092 16.1956 14.9626C16.6483 15.3489 17.5369 15.2145 18.5764 15.1977ZM15.022 5.89436C13.5634 6.65005 12.5575 7.67443 11.7359 8.91712C11.5515 9.18581 11.6353 9.32015 11.9707 9.32015C12.8592 9.32015 13.7478 9.30336 14.6364 9.32015C14.9214 9.32015 15.0388 9.2026 15.0388 8.93391C15.0053 7.95991 15.022 7.00271 15.022 5.89436ZM16.0112 5.89436C16.0112 7.00271 16.0112 7.95991 16.0112 8.91712C16.0112 9.2026 16.1453 9.30336 16.4136 9.30336C17.3022 9.30336 18.1908 9.30336 19.0794 9.30336C19.4314 9.30336 19.465 9.15222 19.2973 8.90032C18.4758 7.67443 17.4531 6.65005 16.0112 5.89436ZM11.518 21.915C12.3395 23.3256 13.3287 24.2996 14.5526 25.0553C14.9214 25.2904 15.0388 25.1728 15.022 24.7698C14.9885 23.8462 15.3071 22.721 14.8711 22.0829C14.4855 21.5287 13.2616 21.9653 12.4233 21.915C12.1718 21.8982 11.9204 21.915 11.518 21.915ZM19.4985 21.9653C18.2746 21.9653 17.2016 21.9653 16.1286 21.9653C15.8939 22.8722 16.095 23.779 16.028 24.6858C16.028 24.7194 16.028 24.7362 16.028 24.7698C15.9945 25.1728 16.1286 25.2904 16.4974 25.0553C17.7046 24.2996 18.6938 23.3256 19.4985 21.9653Z" fill="white"/>
<path d="M4.12461 26.0965C4.12461 26.6506 4.14138 27.0872 4.12461 27.5239C4.10785 27.8429 3.94019 28.0612 3.60487 28.0612C3.26956 28.0612 3.06837 27.8765 3.0516 27.5575C3.01807 26.5163 2.96777 25.4919 2.96777 24.4507C2.96777 23.9637 3.26956 23.7622 3.77253 23.8798C4.69465 24.0981 5.61677 24.3332 6.53889 24.5515C6.90774 24.6355 7.19276 24.8202 7.09216 25.24C7.00834 25.5927 6.72332 25.6934 6.37123 25.643C6.10298 25.6095 5.73413 25.4919 5.63354 25.7774C5.53294 26.0797 5.91856 26.1972 6.11975 26.3819C10.6801 30.2779 16.9169 31 22.2485 28.1956C22.7179 27.9605 23.1371 27.9269 23.6065 28.0445C25.1657 28.3803 26.7249 28.6826 28.2842 29.0185C28.7368 29.1192 28.8374 29.0185 28.7033 28.5818C28.2842 27.188 27.8985 25.7942 27.4794 24.4004C27.3453 23.9637 27.3956 23.6111 27.6471 23.2081C30.0278 19.3792 30.514 15.2817 29.1895 10.9827C29.0554 10.5797 28.871 10.1095 29.441 9.94153C30.0278 9.7736 30.1284 10.311 30.2458 10.6972C31.587 15.0634 31.1846 19.2617 28.9213 23.2416C28.6195 23.779 28.5692 24.2324 28.7368 24.8034C29.2063 26.298 29.6254 27.8094 30.0446 29.3039C30.3128 30.2611 30.0781 30.513 29.1057 30.3283C27.2782 29.9589 25.4507 29.5726 23.6065 29.1696C23.2712 29.1024 22.9694 29.052 22.6341 29.2368C16.5481 32.4107 9.13759 31.2015 4.35934 26.2644C4.34257 26.2308 4.29227 26.1972 4.12461 26.0965Z" fill="white"/>
<path d="M27.781 5.82716C27.9487 5.4745 27.8313 5.07147 27.8649 4.70202C27.8984 4.34937 28.0493 4.09747 28.4181 4.09747C28.8038 4.09747 28.9547 4.34937 28.9379 4.71882C28.9379 5.69281 28.9379 6.6836 28.9044 7.6576C28.8876 8.22857 28.5858 8.44688 28.0158 8.27895C27.1607 8.02705 26.3056 7.75836 25.4338 7.54005C25.0314 7.43929 24.6961 7.27136 24.8135 6.81795C24.9476 6.29736 25.35 6.38133 25.7691 6.48209C26.0877 6.56605 26.3895 6.75078 26.7751 6.66681C26.5404 6.12943 26.1212 5.75999 25.7356 5.39054C21.5274 1.1251 15.1564 -0.100794 9.75779 2.28382C4.27536 4.70202 0.888668 10.1598 1.14016 16.1549C1.20722 17.935 1.62636 19.6311 2.33053 21.2768C2.49819 21.663 2.78321 22.0828 2.2467 22.3515C1.69343 22.6202 1.54254 22.1332 1.35811 21.747C-2.93394 12.5276 3.4706 1.17548 13.5636 0.100723C19.1131 -0.487035 23.7069 1.3602 27.3954 5.54168C27.4793 5.64243 27.5799 5.74319 27.6804 5.84395C27.6804 5.84395 27.7307 5.82716 27.781 5.82716Z" fill="white"/>
</g>
<defs>
<clipPath id="clip0_837_594">
<rect width="31" height="31" fill="white"/>
</clipPath>
</defs>
</svg>
